<svg xmlns="http://www.w3.org/2000/svg" xmlns:xlink="http://www.w3.org/1999/xlink" width="100" zoomAndPan="magnify" viewBox="0 0 75 74.999997" height="100" preserveAspectRatio="xMidYMid meet" version="1.0"><defs><clipPath id="fa59b4ffd6"><path d="M 24 39 L 51 39 L 51 65.40625 L 24 65.40625 Z M 24 39 " clip-rule="nonzero"/></clipPath><clipPath id="5fac348fff"><path d="M 3.238281 9.90625 L 29 9.90625 L 29 36 L 3.238281 36 Z M 3.238281 9.90625 " clip-rule="nonzero"/></clipPath><clipPath id="780f375813"><path d="M 45 9.90625 L 71.488281 9.90625 L 71.488281 36 L 45 36 Z M 45 9.90625 " clip-rule="nonzero"/></clipPath></defs><g clip-path="url(#fa59b4ffd6)"><path stroke-linecap="round" transform="matrix(0.0331472, 0, 0, -0.0334689, -33.122918, 108.809786)" fill="none" stroke-linejoin="round" d="M 2484.714003 1683.036144 C 2484.714003 1486.841701 2325.74014 1327.878684 2129.644877 1327.878684 C 1933.549615 1327.878684 1774.457906 1486.841701 1774.457906 1683.036144 C 1774.457906 1879.113875 1933.549615 2038.076892 2129.644877 2038.076892 C 2325.74014 2038.076892 2484.714003 1879.113875 2484.714003 1683.036144 Z M 2484.714003 1683.036144 " stroke="#231f1f" stroke-width="60" stroke-opacity="1" stroke-miterlimit="10"/></g><path fill="#ffffff" d="M 37.335938 50.621094 C 36.308594 50.628906 35.433594 50.941406 34.695312 51.425781 C 32.003906 53.191406 31.09375 57.234375 31.09375 57.234375 L 43.578125 57.234375 C 43.578125 57.234375 42.09375 50.664062 37.335938 50.621094 " fill-opacity="1" fill-rule="nonzero"/><path stroke-linecap="round" transform="matrix(0.0331472, 0, 0, -0.0334689, -33.122918, 108.809786)" fill="none" stroke-linejoin="round" d="M 2125.638123 1738.591501 C 2094.644701 1738.358076 2068.247262 1729.021041 2045.974423 1714.548637 C 1964.778728 1661.79439 1937.320678 1540.996503 1937.320678 1540.996503 L 2313.955569 1540.996503 C 2313.955569 1540.996503 2269.174199 1737.307659 2125.638123 1738.591501 Z M 2125.638123 1738.591501 " stroke="#231f1f" stroke-width="60" stroke-opacity="1" stroke-miterlimit="10"/><path fill="#ffffff" d="M 40.230469 48.398438 C 40.230469 49.984375 38.9375 51.566406 37.335938 51.566406 C 35.734375 51.566406 34.4375 49.984375 34.4375 48.398438 C 34.4375 46.808594 35.734375 45.519531 37.335938 45.519531 C 38.9375 45.519531 40.230469 46.808594 40.230469 48.398438 " fill-opacity="1" fill-rule="nonzero"/><path stroke-linecap="round" transform="matrix(0.0331472, 0, 0, -0.0334689, -33.122918, 108.809786)" fill="none" stroke-linejoin="round" d="M 2212.961795 1805.001161 C 2212.961795 1757.61571 2173.954864 1710.346971 2125.638123 1710.346971 C 2077.321382 1710.346971 2038.196606 1757.61571 2038.196606 1805.001161 C 2038.196606 1852.503326 2077.321382 1891.018594 2125.638123 1891.018594 C 2173.954864 1891.018594 2212.961795 1852.503326 2212.961795 1805.001161 Z M 2212.961795 1805.001161 " stroke="#231f1f" stroke-width="60" stroke-opacity="1" stroke-miterlimit="10"/><g clip-path="url(#5fac348fff)"><path stroke-linecap="round" transform="matrix(0.0331472, 0, 0, -0.0334689, -33.122918, 108.809786)" fill="none" stroke-linejoin="round" d="M 1836.916132 2569.004032 C 1836.916132 2372.926302 1677.942269 2213.846572 1481.847007 2213.846572 C 1285.751745 2213.846572 1126.660035 2372.926302 1126.660035 2569.004032 C 1126.660035 2765.081762 1285.751745 2924.044779 1481.847007 2924.044779 C 1677.942269 2924.044779 1836.916132 2765.081762 1836.916132 2569.004032 Z M 1836.916132 2569.004032 " stroke="#231f1f" stroke-width="60" stroke-opacity="1" stroke-miterlimit="10"/></g><path fill="#ffffff" d="M 15.863281 20.96875 C 14.835938 20.976562 13.960938 21.289062 13.222656 21.773438 C 10.53125 23.539062 9.621094 27.582031 9.621094 27.582031 L 22.105469 27.582031 C 22.105469 27.582031 20.621094 21.011719 15.863281 20.96875 " fill-opacity="1" fill-rule="nonzero"/><path stroke-linecap="round" transform="matrix(0.0331472, 0, 0, -0.0334689, -33.122918, 108.809786)" fill="none" stroke-linejoin="round" d="M 1477.840253 2624.559389 C 1446.846831 2624.325963 1420.449392 2614.988928 1398.176552 2600.516524 C 1316.980858 2547.762278 1289.522807 2426.96439 1289.522807 2426.96439 L 1666.157698 2426.96439 C 1666.157698 2426.96439 1621.376328 2623.275546 1477.840253 2624.559389 Z M 1477.840253 2624.559389 " stroke="#231f1f" stroke-width="60" stroke-opacity="1" stroke-miterlimit="10"/><path fill="#ffffff" d="M 18.757812 18.742188 C 18.757812 20.332031 17.464844 21.90625 15.863281 21.90625 C 14.261719 21.90625 12.964844 20.332031 12.964844 18.742188 C 12.964844 17.152344 14.261719 15.867188 15.863281 15.867188 C 17.464844 15.867188 18.757812 17.152344 18.757812 18.742188 " fill-opacity="1" fill-rule="nonzero"/><path stroke-linecap="round" transform="matrix(0.0331472, 0, 0, -0.0334689, -33.122918, 108.809786)" fill="none" stroke-linejoin="round" d="M 1565.163924 2691.085762 C 1565.163924 2643.583597 1526.156994 2596.548284 1477.840253 2596.548284 C 1429.523511 2596.548284 1390.398735 2643.583597 1390.398735 2691.085762 C 1390.398735 2738.587926 1429.523511 2776.986481 1477.840253 2776.986481 C 1526.156994 2776.986481 1565.163924 2738.587926 1565.163924 2691.085762 Z M 1565.163924 2691.085762 " stroke="#231f1f" stroke-width="60" stroke-opacity="1" stroke-miterlimit="10"/><g clip-path="url(#780f375813)"><path stroke-linecap="round" transform="matrix(0.0331472, 0, 0, -0.0334689, -33.122918, 108.809786)" fill="none" stroke-linejoin="round" d="M 3125.323285 2569.004032 C 3125.323285 2372.926302 2966.349422 2213.846572 2770.25416 2213.846572 C 2574.041052 2213.846572 2415.067188 2372.926302 2415.067188 2569.004032 C 2415.067188 2765.081762 2574.041052 2924.044779 2770.25416 2924.044779 C 2966.349422 2924.044779 3125.323285 2765.081762 3125.323285 2569.004032 Z M 3125.323285 2569.004032 " stroke="#231f1f" stroke-width="60" stroke-opacity="1" stroke-miterlimit="10"/></g><path fill="#ffffff" d="M 58.570312 20.96875 C 57.542969 20.976562 56.667969 21.289062 55.929688 21.773438 C 53.238281 23.539062 52.328125 27.582031 52.328125 27.582031 L 64.8125 27.582031 C 64.8125 27.582031 63.328125 21.011719 58.570312 20.96875 " fill-opacity="1" fill-rule="nonzero"/><path stroke-linecap="round" transform="matrix(0.0331472, 0, 0, -0.0334689, -33.122918, 108.809786)" fill="none" stroke-linejoin="round" d="M 2766.247405 2624.559389 C 2735.253983 2624.325963 2708.856544 2614.988928 2686.583705 2600.516524 C 2605.388011 2547.762278 2577.92996 2426.96439 2577.92996 2426.96439 L 2954.564851 2426.96439 C 2954.564851 2426.96439 2909.783481 2623.275546 2766.247405 2624.559389 Z M 2766.247405 2624.559389 " stroke="#231f1f" stroke-width="60" stroke-opacity="1" stroke-miterlimit="10"/><path fill="#ffffff" d="M 61.464844 18.742188 C 61.464844 20.332031 60.167969 21.90625 58.570312 21.90625 C 56.96875 21.90625 55.671875 20.332031 55.671875 18.742188 C 55.671875 17.152344 56.96875 15.867188 58.570312 15.867188 C 60.167969 15.867188 61.464844 17.152344 61.464844 18.742188 " fill-opacity="1" fill-rule="nonzero"/><path stroke-linecap="round" transform="matrix(0.0331472, 0, 0, -0.0334689, -33.122918, 108.809786)" fill="none" stroke-linejoin="round" d="M 2853.571077 2691.085762 C 2853.571077 2643.583597 2814.446301 2596.548284 2766.247405 2596.548284 C 2717.930664 2596.548284 2678.805888 2643.583597 2678.805888 2691.085762 C 2678.805888 2738.587926 2717.930664 2776.986481 2766.247405 2776.986481 C 2814.446301 2776.986481 2853.571077 2738.587926 2853.571077 2691.085762 Z M 2853.571077 2691.085762 " stroke="#231f1f" stroke-width="60" stroke-opacity="1" stroke-miterlimit="10"/><path stroke-linecap="round" transform="matrix(0.0331472, 0, 0, -0.0334689, -33.122918, 108.809786)" fill="none" stroke-linejoin="round" d="M 1665.568469 2253.412256 L 1915.047839 1965.948298 " stroke="#231f1f" stroke-width="60" stroke-opacity="1" stroke-miterlimit="10"/><path stroke-linecap="round" transform="matrix(0.0331472, 0, 0, -0.0334689, -33.122918, 108.809786)" fill="none" stroke-linejoin="round" d="M 2594.074822 2256.096654 L 2344.713299 1968.632696 " stroke="#231f1f" stroke-width="60" stroke-opacity="1" stroke-miterlimit="10"/></svg>