<svg xmlns="http://www.w3.org/2000/svg" xmlns:xlink="http://www.w3.org/1999/xlink" width="150" zoomAndPan="magnify" viewBox="0 0 112.5 43.499998" height="58" preserveAspectRatio="xMidYMid meet" version="1.0"><defs><filter x="0%" y="0%" width="100%" height="100%" id="701e9d645f"><feColorMatrix values="0 0 0 0 1 0 0 0 0 1 0 0 0 0 1 0 0 0 1 0" color-interpolation-filters="sRGB"/></filter><g/><mask id="3a0fda9b1d"><g filter="url(#701e9d645f)"><rect x="-11.25" width="135" fill="#000000" y="-4.35" height="52.199998" fill-opacity="0.3765"/></g></mask><clipPath id="69b8811618"><path d="M 66 0.0507812 L 78 0.0507812 L 78 10 L 66 10 Z M 66 0.0507812 " clip-rule="nonzero"/></clipPath><clipPath id="dc00caab69"><path d="M 0.476562 7.332031 L 77.335938 -0.371094 L 78.925781 15.476562 L 2.0625 23.179688 Z M 0.476562 7.332031 " clip-rule="nonzero"/></clipPath><clipPath id="aabd3b7c0d"><path d="M 0.476562 7.332031 L 77.335938 -0.371094 L 78.925781 15.476562 L 2.0625 23.179688 Z M 0.476562 7.332031 " clip-rule="nonzero"/></clipPath><clipPath id="fdc3377b0f"><path d="M 2 0.0507812 L 77 0.0507812 L 77 23 L 2 23 Z M 2 0.0507812 " clip-rule="nonzero"/></clipPath><clipPath id="9dde3064e1"><path d="M 0.476562 7.332031 L 77.335938 -0.371094 L 78.925781 15.476562 L 2.0625 23.179688 Z M 0.476562 7.332031 " clip-rule="nonzero"/></clipPath><clipPath id="982875c903"><path d="M 0.476562 7.332031 L 77.335938 -0.371094 L 78.925781 15.476562 L 2.0625 23.179688 Z M 0.476562 7.332031 " clip-rule="nonzero"/></clipPath><clipPath id="16479b589f"><rect x="0" width="79" y="0" height="24"/></clipPath><clipPath id="7ae3e3ee29"><path d="M 0.390625 5 L 11 5 L 11 19 L 0.390625 19 Z M 0.390625 5 " clip-rule="nonzero"/></clipPath><clipPath id="1baa18db0b"><path d="M 94 7 L 99 7 L 99 15.148438 L 94 15.148438 Z M 94 7 " clip-rule="nonzero"/></clipPath><clipPath id="7814af47b7"><path d="M 82.527344 1 L 101 1 L 101 14 L 82.527344 14 Z M 82.527344 1 " clip-rule="nonzero"/></clipPath></defs><g mask="url(#3a0fda9b1d)"><g transform="matrix(1, 0, 0, 1, 4, 13)"><g clip-path="url(#16479b589f)"><g clip-path="url(#69b8811618)"><g clip-path="url(#dc00caab69)"><g clip-path="url(#aabd3b7c0d)"><path fill="#09847f" d="M 71.6875 9.839844 C 71.53125 9.859375 71.367188 9.824219 71.222656 9.730469 C 70.875 9.511719 70.769531 9.054688 70.988281 8.707031 L 75.167969 2.011719 L 67.5 3.371094 C 67.101562 3.449219 66.714844 3.171875 66.644531 2.769531 C 66.570312 2.363281 66.839844 1.976562 67.242188 1.90625 L 76.550781 0.257812 C 76.816406 0.207031 77.128906 0.332031 77.292969 0.574219 C 77.457031 0.816406 77.460938 1.136719 77.304688 1.382812 L 72.242188 9.496094 C 72.117188 9.699219 71.90625 9.820312 71.6875 9.839844 " fill-opacity="1" fill-rule="nonzero"/></g></g></g><g clip-path="url(#fdc3377b0f)"><g clip-path="url(#9dde3064e1)"><g clip-path="url(#982875c903)"><path fill="#09847f" d="M 46.761719 12.878906 C 45.460938 13.828125 44.476562 14.832031 44.25 15.710938 C 44.144531 16.132812 44.214844 16.5 44.480469 16.867188 C 44.75 17.242188 44.976562 17.40625 45.203125 17.359375 C 45.828125 17.203125 46.644531 15.742188 46.777344 14.804688 C 46.875 14.117188 46.867188 13.476562 46.761719 12.878906 Z M 45.304688 18.84375 C 44.789062 18.894531 44.011719 18.75 43.28125 17.734375 C 42.761719 17.015625 42.601562 16.183594 42.820312 15.339844 C 43.195312 13.871094 44.695312 12.496094 46.25 11.417969 C 45.9375 10.839844 45.496094 10.308594 44.929688 9.820312 C 40.121094 5.675781 27.566406 6.082031 23.328125 7.367188 C 16.597656 9.40625 7.347656 14.519531 3.441406 22.21875 C 3.253906 22.585938 2.808594 22.730469 2.445312 22.542969 C 2.082031 22.359375 1.9375 21.910156 2.121094 21.542969 C 6.242188 13.429688 15.886719 8.066406 22.898438 5.941406 C 27.152344 4.65625 40.472656 4.023438 45.894531 8.691406 C 46.570312 9.273438 47.105469 9.917969 47.5 10.613281 C 48.476562 10.03125 49.355469 9.59375 49.851562 9.359375 C 52.585938 8.070312 55.921875 7.570312 59.457031 7.039062 C 65.214844 6.175781 71.175781 5.28125 75.097656 0.867188 C 75.371094 0.5625 75.839844 0.535156 76.144531 0.808594 C 76.449219 1.082031 76.472656 1.550781 76.203125 1.859375 C 71.921875 6.671875 65.417969 7.648438 59.675781 8.507812 C 56.253906 9.023438 53.019531 9.507812 50.480469 10.707031 C 49.671875 11.085938 48.851562 11.527344 48.078125 12 C 48.339844 12.925781 48.390625 13.929688 48.242188 15.011719 C 48.085938 16.105469 47.113281 18.414062 45.558594 18.800781 C 45.484375 18.820312 45.398438 18.835938 45.304688 18.84375 " fill-opacity="1" fill-rule="nonzero"/></g></g></g></g></g></g><g fill="#051d40" fill-opacity="0.4"><g transform="translate(1.273983, 19.134017)"><g><path d="M 5.765625 -0.660156 C 5.6875 -0.417969 5.585938 -0.257812 5.425781 -0.140625 C 5.246094 0 5.046875 0.0390625 4.808594 0 C 4.628906 -0.0390625 4.488281 -0.160156 4.371094 -0.378906 C 4.25 -0.578125 4.191406 -0.796875 4.191406 -1.058594 C 4.167969 -1.933594 4.167969 -2.792969 4.210938 -3.671875 C 4.230469 -4.527344 4.25 -5.40625 4.289062 -6.285156 C 4.289062 -7.164062 4.308594 -8.039062 4.328125 -8.917969 C 4.328125 -9.777344 4.347656 -10.652344 4.390625 -11.53125 C 3.8125 -11.53125 3.253906 -11.511719 2.734375 -11.472656 C 2.472656 -11.433594 2.175781 -11.414062 1.855469 -11.371094 C 1.496094 -11.3125 1.195312 -11.332031 0.957031 -11.433594 C 0.71875 -11.511719 0.539062 -11.652344 0.457031 -11.8125 C 0.359375 -11.949219 0.320312 -12.109375 0.359375 -12.269531 C 0.359375 -12.449219 0.4375 -12.609375 0.597656 -12.75 C 0.738281 -12.867188 0.957031 -12.929688 1.238281 -12.96875 C 1.65625 -13.007812 2.175781 -13.046875 2.8125 -13.089844 C 3.433594 -13.089844 4.070312 -13.109375 4.75 -13.109375 C 5.984375 -13.109375 6.964844 -13.109375 7.679688 -13.128906 C 8.378906 -13.128906 8.917969 -13.148438 9.296875 -13.1875 C 9.578125 -13.1875 9.777344 -13.089844 9.894531 -12.910156 C 9.996094 -12.710938 10.035156 -12.550781 10.035156 -12.390625 C 10.035156 -12.210938 9.976562 -12.070312 9.855469 -11.949219 C 9.738281 -11.8125 9.558594 -11.730469 9.335938 -11.710938 C 8.859375 -11.652344 8.339844 -11.613281 7.742188 -11.59375 C 7.144531 -11.550781 6.542969 -11.53125 5.984375 -11.53125 L 5.984375 -7.003906 C 5.964844 -6.246094 5.945312 -5.507812 5.945312 -4.808594 C 5.925781 -4.089844 5.90625 -3.433594 5.90625 -2.871094 C 5.886719 -2.273438 5.867188 -1.796875 5.847656 -1.417969 C 5.804688 -1.015625 5.785156 -0.757812 5.765625 -0.660156 Z M 5.765625 -0.660156 "/></g></g></g><g fill="#051d40" fill-opacity="0.4"><g transform="translate(10.748962, 19.134017)"><g><path d="M 3.050781 -0.578125 C 2.972656 -0.339844 2.871094 -0.160156 2.734375 -0.0390625 C 2.574219 0.078125 2.375 0.140625 2.136719 0.101562 C 1.933594 0.0585938 1.796875 -0.0195312 1.675781 -0.21875 C 1.554688 -0.378906 1.496094 -0.617188 1.515625 -0.898438 L 1.257812 -8.660156 C 1.195312 -8.820312 1.195312 -8.976562 1.238281 -9.136719 C 1.257812 -9.296875 1.316406 -9.4375 1.4375 -9.558594 C 1.515625 -9.65625 1.65625 -9.738281 1.816406 -9.777344 C 1.957031 -9.796875 2.113281 -9.757812 2.3125 -9.675781 C 2.472656 -9.578125 2.59375 -9.4375 2.714844 -9.257812 C 2.792969 -9.058594 2.851562 -8.839844 2.871094 -8.578125 L 2.871094 -8.28125 C 2.871094 -8.160156 2.871094 -8.058594 2.894531 -7.960938 C 3.210938 -8.480469 3.589844 -8.878906 4.03125 -9.15625 C 4.46875 -9.398438 4.929688 -9.535156 5.445312 -9.535156 C 5.644531 -9.535156 5.90625 -9.496094 6.183594 -9.457031 C 6.445312 -9.398438 6.703125 -9.277344 6.984375 -9.117188 C 7.222656 -8.917969 7.460938 -8.660156 7.679688 -8.339844 C 7.882812 -7.980469 8.039062 -7.523438 8.140625 -6.964844 C 8.179688 -6.683594 8.140625 -6.445312 8.019531 -6.285156 C 7.882812 -6.105469 7.679688 -6.003906 7.441406 -5.984375 C 7.203125 -5.945312 7.023438 -6.027344 6.902344 -6.183594 C 6.761719 -6.324219 6.664062 -6.503906 6.625 -6.703125 C 6.484375 -7.222656 6.304688 -7.542969 6.066406 -7.703125 C 5.804688 -7.839844 5.546875 -7.921875 5.308594 -7.921875 C 5.148438 -7.921875 4.96875 -7.902344 4.789062 -7.859375 C 4.589844 -7.800781 4.390625 -7.703125 4.191406 -7.582031 C 3.96875 -7.441406 3.769531 -7.261719 3.570312 -7.023438 C 3.351562 -6.785156 3.152344 -6.464844 2.972656 -6.105469 C 2.972656 -5.707031 2.992188 -5.367188 3.03125 -5.066406 C 3.03125 -4.75 3.050781 -4.429688 3.074219 -4.128906 C 3.074219 -3.8125 3.09375 -3.492188 3.113281 -3.171875 L 3.113281 -2.054688 C 3.113281 -1.238281 3.09375 -0.738281 3.050781 -0.578125 Z M 3.050781 -0.578125 "/></g></g></g><g fill="#051d40" fill-opacity="0.4"><g transform="translate(18.468521, 19.134017)"><g><path d="M 3.152344 -0.417969 C 3.074219 -0.199219 2.972656 -0.0390625 2.8125 0.078125 C 2.652344 0.179688 2.433594 0.21875 2.195312 0.199219 C 1.996094 0.160156 1.835938 0.0585938 1.714844 -0.121094 C 1.554688 -0.300781 1.496094 -0.539062 1.535156 -0.839844 C 1.554688 -2.113281 1.597656 -3.410156 1.636719 -4.6875 C 1.675781 -5.945312 1.695312 -7.242188 1.714844 -8.597656 C 1.675781 -8.738281 1.675781 -8.898438 1.734375 -9.078125 C 1.777344 -9.238281 1.875 -9.378906 1.996094 -9.496094 C 2.113281 -9.597656 2.253906 -9.675781 2.433594 -9.714844 C 2.59375 -9.738281 2.753906 -9.695312 2.953125 -9.597656 C 3.230469 -9.417969 3.371094 -9.039062 3.371094 -8.441406 L 3.371094 -5.886719 C 3.351562 -5.007812 3.332031 -4.191406 3.332031 -3.453125 C 3.3125 -2.695312 3.292969 -2.054688 3.273438 -1.515625 C 3.230469 -0.957031 3.191406 -0.597656 3.152344 -0.417969 Z M 1.257812 -12.128906 C 1.257812 -12.507812 1.355469 -12.828125 1.578125 -13.109375 C 1.777344 -13.367188 2.054688 -13.507812 2.433594 -13.507812 C 2.695312 -13.507812 2.914062 -13.46875 3.09375 -13.386719 C 3.253906 -13.289062 3.371094 -13.1875 3.472656 -13.066406 C 3.550781 -12.929688 3.589844 -12.789062 3.632812 -12.628906 C 3.652344 -12.46875 3.671875 -12.308594 3.671875 -12.191406 C 3.671875 -11.832031 3.570312 -11.550781 3.390625 -11.332031 C 3.191406 -11.09375 2.832031 -10.953125 2.3125 -10.933594 C 1.957031 -10.933594 1.675781 -11.054688 1.515625 -11.292969 C 1.335938 -11.53125 1.257812 -11.8125 1.257812 -12.128906 Z M 1.257812 -12.128906 "/></g></g></g><g fill="#051d40" fill-opacity="0.4"><g transform="translate(22.497686, 19.134017)"><g><path d="M 3.050781 3.050781 C 2.972656 3.273438 2.871094 3.453125 2.734375 3.589844 C 2.574219 3.710938 2.375 3.769531 2.136719 3.730469 C 1.933594 3.691406 1.796875 3.589844 1.675781 3.433594 C 1.554688 3.230469 1.496094 3.011719 1.515625 2.734375 L 1.257812 -8.820312 C 1.195312 -8.976562 1.195312 -9.136719 1.238281 -9.296875 C 1.257812 -9.457031 1.316406 -9.597656 1.4375 -9.714844 C 1.515625 -9.816406 1.65625 -9.894531 1.816406 -9.9375 C 1.957031 -9.957031 2.113281 -9.914062 2.3125 -9.835938 C 2.472656 -9.738281 2.59375 -9.597656 2.714844 -9.417969 C 2.792969 -9.21875 2.851562 -9 2.871094 -8.738281 L 2.894531 -8.21875 C 3.371094 -8.699219 3.949219 -9.058594 4.628906 -9.335938 C 5.265625 -9.578125 5.90625 -9.714844 6.503906 -9.738281 C 6.882812 -9.738281 7.28125 -9.636719 7.679688 -9.4375 C 8.082031 -9.21875 8.441406 -8.917969 8.757812 -8.558594 C 9.078125 -8.160156 9.335938 -7.722656 9.535156 -7.203125 C 9.738281 -6.664062 9.835938 -6.085938 9.835938 -5.488281 C 9.835938 -4.75 9.695312 -4.109375 9.417969 -3.550781 C 9.117188 -2.972656 8.738281 -2.492188 8.28125 -2.136719 C 7.800781 -1.734375 7.261719 -1.457031 6.664062 -1.277344 C 6.066406 -1.078125 5.445312 -0.976562 4.828125 -0.976562 C 4.570312 -0.976562 4.289062 -0.976562 3.992188 -1.015625 C 3.671875 -1.039062 3.371094 -1.078125 3.074219 -1.15625 C 3.074219 -0.636719 3.09375 -0.140625 3.113281 0.320312 L 3.113281 1.578125 C 3.113281 2.375 3.09375 2.871094 3.050781 3.050781 Z M 8.179688 -5.527344 C 8.101562 -6.285156 7.902344 -6.921875 7.5625 -7.421875 C 7.203125 -7.902344 6.742188 -8.140625 6.203125 -8.179688 C 5.726562 -8.179688 5.207031 -8.058594 4.609375 -7.78125 C 4.011719 -7.5 3.453125 -7.101562 2.933594 -6.625 C 2.953125 -6.046875 2.972656 -5.40625 2.992188 -4.707031 C 2.992188 -3.992188 3.011719 -3.253906 3.050781 -2.535156 C 3.570312 -2.414062 4.148438 -2.394531 4.789062 -2.453125 C 5.40625 -2.492188 5.984375 -2.652344 6.503906 -2.894531 C 7.023438 -3.113281 7.441406 -3.453125 7.78125 -3.890625 C 8.101562 -4.308594 8.21875 -4.847656 8.179688 -5.527344 Z M 8.179688 -5.527344 "/></g></g></g><g clip-path="url(#7ae3e3ee29)"><g fill="#09847f" fill-opacity="1"><g transform="translate(0.392048, 18.252081)"><g><path d="M 5.765625 -0.660156 C 5.6875 -0.417969 5.585938 -0.257812 5.425781 -0.140625 C 5.246094 0 5.046875 0.0390625 4.808594 0 C 4.628906 -0.0390625 4.488281 -0.160156 4.371094 -0.378906 C 4.25 -0.578125 4.191406 -0.796875 4.191406 -1.058594 C 4.167969 -1.933594 4.167969 -2.792969 4.210938 -3.671875 C 4.230469 -4.527344 4.25 -5.40625 4.289062 -6.285156 C 4.289062 -7.164062 4.308594 -8.039062 4.328125 -8.917969 C 4.328125 -9.777344 4.347656 -10.652344 4.390625 -11.53125 C 3.8125 -11.53125 3.253906 -11.511719 2.734375 -11.472656 C 2.472656 -11.433594 2.175781 -11.414062 1.855469 -11.371094 C 1.496094 -11.3125 1.195312 -11.332031 0.957031 -11.433594 C 0.71875 -11.511719 0.539062 -11.652344 0.457031 -11.8125 C 0.359375 -11.949219 0.320312 -12.109375 0.359375 -12.269531 C 0.359375 -12.449219 0.4375 -12.609375 0.597656 -12.75 C 0.738281 -12.867188 0.957031 -12.929688 1.238281 -12.96875 C 1.65625 -13.007812 2.175781 -13.046875 2.8125 -13.089844 C 3.433594 -13.089844 4.070312 -13.109375 4.75 -13.109375 C 5.984375 -13.109375 6.964844 -13.109375 7.679688 -13.128906 C 8.378906 -13.128906 8.917969 -13.148438 9.296875 -13.1875 C 9.578125 -13.1875 9.777344 -13.089844 9.894531 -12.910156 C 9.996094 -12.710938 10.035156 -12.550781 10.035156 -12.390625 C 10.035156 -12.210938 9.976562 -12.070312 9.855469 -11.949219 C 9.738281 -11.8125 9.558594 -11.730469 9.335938 -11.710938 C 8.859375 -11.652344 8.339844 -11.613281 7.742188 -11.59375 C 7.144531 -11.550781 6.542969 -11.53125 5.984375 -11.53125 L 5.984375 -7.003906 C 5.964844 -6.246094 5.945312 -5.507812 5.945312 -4.808594 C 5.925781 -4.089844 5.90625 -3.433594 5.90625 -2.871094 C 5.886719 -2.273438 5.867188 -1.796875 5.847656 -1.417969 C 5.804688 -1.015625 5.785156 -0.757812 5.765625 -0.660156 Z M 5.765625 -0.660156 "/></g></g></g></g><g fill="#09847f" fill-opacity="1"><g transform="translate(9.867027, 18.252081)"><g><path d="M 3.050781 -0.578125 C 2.972656 -0.339844 2.871094 -0.160156 2.734375 -0.0390625 C 2.574219 0.078125 2.375 0.140625 2.136719 0.101562 C 1.933594 0.0585938 1.796875 -0.0195312 1.675781 -0.21875 C 1.554688 -0.378906 1.496094 -0.617188 1.515625 -0.898438 L 1.257812 -8.660156 C 1.195312 -8.820312 1.195312 -8.976562 1.238281 -9.136719 C 1.257812 -9.296875 1.316406 -9.4375 1.4375 -9.558594 C 1.515625 -9.65625 1.65625 -9.738281 1.816406 -9.777344 C 1.957031 -9.796875 2.113281 -9.757812 2.3125 -9.675781 C 2.472656 -9.578125 2.59375 -9.4375 2.714844 -9.257812 C 2.792969 -9.058594 2.851562 -8.839844 2.871094 -8.578125 L 2.871094 -8.28125 C 2.871094 -8.160156 2.871094 -8.058594 2.894531 -7.960938 C 3.210938 -8.480469 3.589844 -8.878906 4.03125 -9.15625 C 4.46875 -9.398438 4.929688 -9.535156 5.445312 -9.535156 C 5.644531 -9.535156 5.90625 -9.496094 6.183594 -9.457031 C 6.445312 -9.398438 6.703125 -9.277344 6.984375 -9.117188 C 7.222656 -8.917969 7.460938 -8.660156 7.679688 -8.339844 C 7.882812 -7.980469 8.039062 -7.523438 8.140625 -6.964844 C 8.179688 -6.683594 8.140625 -6.445312 8.019531 -6.285156 C 7.882812 -6.105469 7.679688 -6.003906 7.441406 -5.984375 C 7.203125 -5.945312 7.023438 -6.027344 6.902344 -6.183594 C 6.761719 -6.324219 6.664062 -6.503906 6.625 -6.703125 C 6.484375 -7.222656 6.304688 -7.542969 6.066406 -7.703125 C 5.804688 -7.839844 5.546875 -7.921875 5.308594 -7.921875 C 5.148438 -7.921875 4.96875 -7.902344 4.789062 -7.859375 C 4.589844 -7.800781 4.390625 -7.703125 4.191406 -7.582031 C 3.96875 -7.441406 3.769531 -7.261719 3.570312 -7.023438 C 3.351562 -6.785156 3.152344 -6.464844 2.972656 -6.105469 C 2.972656 -5.707031 2.992188 -5.367188 3.03125 -5.066406 C 3.03125 -4.75 3.050781 -4.429688 3.074219 -4.128906 C 3.074219 -3.8125 3.09375 -3.492188 3.113281 -3.171875 L 3.113281 -2.054688 C 3.113281 -1.238281 3.09375 -0.738281 3.050781 -0.578125 Z M 3.050781 -0.578125 "/></g></g></g><g fill="#09847f" fill-opacity="1"><g transform="translate(17.586585, 18.252081)"><g><path d="M 3.152344 -0.417969 C 3.074219 -0.199219 2.972656 -0.0390625 2.8125 0.078125 C 2.652344 0.179688 2.433594 0.21875 2.195312 0.199219 C 1.996094 0.160156 1.835938 0.0585938 1.714844 -0.121094 C 1.554688 -0.300781 1.496094 -0.539062 1.535156 -0.839844 C 1.554688 -2.113281 1.597656 -3.410156 1.636719 -4.6875 C 1.675781 -5.945312 1.695312 -7.242188 1.714844 -8.597656 C 1.675781 -8.738281 1.675781 -8.898438 1.734375 -9.078125 C 1.777344 -9.238281 1.875 -9.378906 1.996094 -9.496094 C 2.113281 -9.597656 2.253906 -9.675781 2.433594 -9.714844 C 2.59375 -9.738281 2.753906 -9.695312 2.953125 -9.597656 C 3.230469 -9.417969 3.371094 -9.039062 3.371094 -8.441406 L 3.371094 -5.886719 C 3.351562 -5.007812 3.332031 -4.191406 3.332031 -3.453125 C 3.3125 -2.695312 3.292969 -2.054688 3.273438 -1.515625 C 3.230469 -0.957031 3.191406 -0.597656 3.152344 -0.417969 Z M 1.257812 -12.128906 C 1.257812 -12.507812 1.355469 -12.828125 1.578125 -13.109375 C 1.777344 -13.367188 2.054688 -13.507812 2.433594 -13.507812 C 2.695312 -13.507812 2.914062 -13.46875 3.09375 -13.386719 C 3.253906 -13.289062 3.371094 -13.1875 3.472656 -13.066406 C 3.550781 -12.929688 3.589844 -12.789062 3.632812 -12.628906 C 3.652344 -12.46875 3.671875 -12.308594 3.671875 -12.191406 C 3.671875 -11.832031 3.570312 -11.550781 3.390625 -11.332031 C 3.191406 -11.09375 2.832031 -10.953125 2.3125 -10.933594 C 1.957031 -10.933594 1.675781 -11.054688 1.515625 -11.292969 C 1.335938 -11.53125 1.257812 -11.8125 1.257812 -12.128906 Z M 1.257812 -12.128906 "/></g></g></g><g fill="#09847f" fill-opacity="1"><g transform="translate(21.615751, 18.252081)"><g><path d="M 3.050781 3.050781 C 2.972656 3.273438 2.871094 3.453125 2.734375 3.589844 C 2.574219 3.710938 2.375 3.769531 2.136719 3.730469 C 1.933594 3.691406 1.796875 3.589844 1.675781 3.433594 C 1.554688 3.230469 1.496094 3.011719 1.515625 2.734375 L 1.257812 -8.820312 C 1.195312 -8.976562 1.195312 -9.136719 1.238281 -9.296875 C 1.257812 -9.457031 1.316406 -9.597656 1.4375 -9.714844 C 1.515625 -9.816406 1.65625 -9.894531 1.816406 -9.9375 C 1.957031 -9.957031 2.113281 -9.914062 2.3125 -9.835938 C 2.472656 -9.738281 2.59375 -9.597656 2.714844 -9.417969 C 2.792969 -9.21875 2.851562 -9 2.871094 -8.738281 L 2.894531 -8.21875 C 3.371094 -8.699219 3.949219 -9.058594 4.628906 -9.335938 C 5.265625 -9.578125 5.90625 -9.714844 6.503906 -9.738281 C 6.882812 -9.738281 7.28125 -9.636719 7.679688 -9.4375 C 8.082031 -9.21875 8.441406 -8.917969 8.757812 -8.558594 C 9.078125 -8.160156 9.335938 -7.722656 9.535156 -7.203125 C 9.738281 -6.664062 9.835938 -6.085938 9.835938 -5.488281 C 9.835938 -4.75 9.695312 -4.109375 9.417969 -3.550781 C 9.117188 -2.972656 8.738281 -2.492188 8.28125 -2.136719 C 7.800781 -1.734375 7.261719 -1.457031 6.664062 -1.277344 C 6.066406 -1.078125 5.445312 -0.976562 4.828125 -0.976562 C 4.570312 -0.976562 4.289062 -0.976562 3.992188 -1.015625 C 3.671875 -1.039062 3.371094 -1.078125 3.074219 -1.15625 C 3.074219 -0.636719 3.09375 -0.140625 3.113281 0.320312 L 3.113281 1.578125 C 3.113281 2.375 3.09375 2.871094 3.050781 3.050781 Z M 8.179688 -5.527344 C 8.101562 -6.285156 7.902344 -6.921875 7.5625 -7.421875 C 7.203125 -7.902344 6.742188 -8.140625 6.203125 -8.179688 C 5.726562 -8.179688 5.207031 -8.058594 4.609375 -7.78125 C 4.011719 -7.5 3.453125 -7.101562 2.933594 -6.625 C 2.953125 -6.046875 2.972656 -5.40625 2.992188 -4.707031 C 2.992188 -3.992188 3.011719 -3.253906 3.050781 -2.535156 C 3.570312 -2.414062 4.148438 -2.394531 4.789062 -2.453125 C 5.40625 -2.492188 5.984375 -2.652344 6.503906 -2.894531 C 7.023438 -3.113281 7.441406 -3.453125 7.78125 -3.890625 C 8.101562 -4.308594 8.21875 -4.847656 8.179688 -5.527344 Z M 8.179688 -5.527344 "/></g></g></g><g fill="#051d40" fill-opacity="0.4"><g transform="translate(15.980372, 36.491024)"><g><path d="M 7.523438 -0.859375 C 7.417969 -0.546875 7.289062 -0.339844 7.078125 -0.183594 C 6.84375 0 6.585938 0.0507812 6.273438 0 C 6.039062 -0.0507812 5.855469 -0.207031 5.699219 -0.496094 C 5.542969 -0.753906 5.464844 -1.042969 5.464844 -1.378906 C 5.441406 -2.523438 5.441406 -3.644531 5.492188 -4.789062 C 5.519531 -5.910156 5.542969 -7.054688 5.597656 -8.199219 C 5.597656 -9.34375 5.621094 -10.488281 5.648438 -11.632812 C 5.648438 -12.753906 5.675781 -13.898438 5.726562 -15.042969 C 4.972656 -15.042969 4.242188 -15.019531 3.566406 -14.964844 C 3.226562 -14.914062 2.835938 -14.886719 2.421875 -14.835938 C 1.953125 -14.757812 1.5625 -14.785156 1.25 -14.914062 C 0.9375 -15.019531 0.703125 -15.199219 0.597656 -15.410156 C 0.46875 -15.589844 0.417969 -15.800781 0.46875 -16.007812 C 0.46875 -16.242188 0.574219 -16.449219 0.78125 -16.632812 C 0.964844 -16.789062 1.25 -16.867188 1.613281 -16.917969 C 2.160156 -16.96875 2.835938 -17.023438 3.671875 -17.074219 C 4.476562 -17.074219 5.308594 -17.101562 6.195312 -17.101562 C 7.808594 -17.101562 9.082031 -17.101562 10.019531 -17.125 C 10.933594 -17.125 11.632812 -17.152344 12.128906 -17.203125 C 12.492188 -17.203125 12.753906 -17.074219 12.910156 -16.839844 C 13.039062 -16.578125 13.09375 -16.371094 13.09375 -16.164062 C 13.09375 -15.929688 13.015625 -15.746094 12.859375 -15.589844 C 12.703125 -15.410156 12.46875 -15.304688 12.179688 -15.277344 C 11.554688 -15.199219 10.878906 -15.148438 10.097656 -15.121094 C 9.316406 -15.070312 8.539062 -15.042969 7.808594 -15.042969 L 7.808594 -9.136719 C 7.78125 -8.148438 7.757812 -7.183594 7.757812 -6.273438 C 7.730469 -5.335938 7.703125 -4.476562 7.703125 -3.75 C 7.679688 -2.96875 7.652344 -2.34375 7.625 -1.847656 C 7.574219 -1.328125 7.546875 -0.988281 7.523438 -0.859375 Z M 7.523438 -0.859375 "/></g></g></g><g fill="#051d40" fill-opacity="0.4"><g transform="translate(28.343107, 36.491024)"><g><path d="M 1.066406 -5.386719 C 1.066406 -6.066406 1.144531 -6.84375 1.351562 -7.703125 C 1.507812 -8.539062 1.847656 -9.316406 2.316406 -10.074219 C 2.785156 -10.800781 3.4375 -11.398438 4.269531 -11.921875 C 5.074219 -12.390625 6.117188 -12.648438 7.390625 -12.648438 C 8.539062 -12.648438 9.527344 -12.441406 10.332031 -12.050781 C 11.113281 -11.632812 11.765625 -11.140625 12.285156 -10.542969 C 12.753906 -9.917969 13.117188 -9.214844 13.328125 -8.484375 C 13.507812 -7.703125 13.585938 -6.976562 13.585938 -6.273438 C 13.535156 -5.621094 13.378906 -4.917969 13.066406 -4.164062 C 12.753906 -3.382812 12.285156 -2.65625 11.6875 -2.03125 C 11.0625 -1.351562 10.308594 -0.832031 9.421875 -0.441406 C 8.484375 -0.0273438 7.445312 0.105469 6.246094 0 C 5.386719 -0.0507812 4.632812 -0.261719 4.007812 -0.597656 C 3.359375 -0.910156 2.8125 -1.328125 2.394531 -1.847656 C 1.953125 -2.316406 1.613281 -2.890625 1.40625 -3.515625 C 1.171875 -4.113281 1.066406 -4.738281 1.066406 -5.386719 Z M 7.3125 -10.621094 C 6.609375 -10.621094 6.011719 -10.464844 5.519531 -10.175781 C 4.996094 -9.863281 4.605469 -9.449219 4.292969 -8.953125 C 3.957031 -8.433594 3.722656 -7.835938 3.59375 -7.210938 C 3.4375 -6.53125 3.382812 -5.882812 3.4375 -5.207031 C 3.4375 -4.867188 3.515625 -4.527344 3.644531 -4.191406 C 3.75 -3.824219 3.902344 -3.488281 4.164062 -3.203125 C 4.371094 -2.890625 4.683594 -2.601562 5.050781 -2.394531 C 5.386719 -2.160156 5.804688 -2.03125 6.324219 -1.976562 C 7.835938 -1.898438 9.03125 -2.265625 9.941406 -3.070312 C 10.828125 -3.851562 11.269531 -5.050781 11.269531 -6.609375 C 11.269531 -7.757812 10.90625 -8.71875 10.230469 -9.5 C 9.5 -10.230469 8.539062 -10.621094 7.3125 -10.621094 Z M 7.3125 -10.621094 "/></g></g></g><g fill="#051d40" fill-opacity="0.4"><g transform="translate(41.87709, 36.491024)"><g><path d="M 7.417969 -11.6875 C 7.679688 -11.6875 7.992188 -11.660156 8.355469 -11.632812 C 8.695312 -11.582031 9.03125 -11.554688 9.394531 -11.503906 C 9.34375 -11.6875 9.371094 -11.867188 9.449219 -12.078125 C 9.5 -12.234375 9.578125 -12.390625 9.734375 -12.519531 C 9.839844 -12.625 9.996094 -12.703125 10.203125 -12.753906 C 10.386719 -12.753906 10.59375 -12.726562 10.828125 -12.625 C 11.035156 -12.492188 11.191406 -12.3125 11.347656 -12.078125 C 11.453125 -11.816406 11.53125 -11.53125 11.554688 -11.191406 L 11.609375 -9.578125 C 11.609375 -8.902344 11.632812 -8.148438 11.6875 -7.289062 C 11.710938 -6.402344 11.738281 -5.464844 11.789062 -4.476562 C 11.789062 -3.488281 11.816406 -2.472656 11.84375 -1.484375 C 11.84375 -0.441406 11.867188 0.496094 11.867188 1.429688 C 11.867188 2.003906 11.816406 2.523438 11.738281 2.96875 C 11.632812 3.382812 11.453125 3.722656 11.21875 4.007812 C 10.957031 4.269531 10.621094 4.449219 10.203125 4.605469 C 9.761719 4.710938 9.214844 4.789062 8.5625 4.789062 C 7.914062 4.789062 7.261719 4.738281 6.585938 4.632812 C 5.882812 4.527344 5.257812 4.371094 4.710938 4.214844 C 4.136719 4.007812 3.695312 3.800781 3.332031 3.566406 C 2.96875 3.304688 2.785156 3.046875 2.785156 2.757812 C 2.785156 2.445312 2.863281 2.210938 3.046875 2.109375 C 3.203125 1.976562 3.410156 1.925781 3.644531 1.925781 C 3.722656 1.925781 3.800781 1.925781 3.902344 1.953125 C 3.980469 1.953125 4.058594 1.953125 4.164062 1.976562 C 4.527344 2.082031 4.894531 2.160156 5.230469 2.265625 C 5.542969 2.34375 5.855469 2.421875 6.195312 2.5 C 6.507812 2.550781 6.871094 2.578125 7.234375 2.628906 C 7.601562 2.65625 8.015625 2.679688 8.511719 2.679688 C 9.058594 2.679688 9.394531 2.550781 9.550781 2.316406 C 9.683594 2.054688 9.761719 1.691406 9.761719 1.222656 L 9.761719 -0.285156 C 9.734375 -0.703125 9.707031 -1.273438 9.707031 -2.003906 C 9.058594 -1.429688 8.328125 -1.015625 7.546875 -0.730469 C 6.714844 -0.417969 5.960938 -0.261719 5.230469 -0.261719 C 4.710938 -0.261719 4.214844 -0.390625 3.695312 -0.675781 C 3.175781 -0.9375 2.707031 -1.300781 2.289062 -1.820312 C 1.875 -2.289062 1.535156 -2.890625 1.273438 -3.566406 C 1.015625 -4.242188 0.886719 -4.972656 0.886719 -5.804688 C 0.886719 -6.742188 1.066406 -7.601562 1.457031 -8.355469 C 1.820312 -9.082031 2.316406 -9.683594 2.941406 -10.203125 C 3.539062 -10.671875 4.242188 -11.0625 5.023438 -11.324219 C 5.804688 -11.554688 6.585938 -11.6875 7.417969 -11.6875 Z M 3.046875 -5.753906 C 3.125 -4.738281 3.410156 -3.929688 3.878906 -3.304688 C 4.320312 -2.65625 4.894531 -2.316406 5.621094 -2.289062 C 6.195312 -2.265625 6.84375 -2.421875 7.574219 -2.757812 C 8.304688 -3.070312 8.980469 -3.515625 9.65625 -4.085938 C 9.605469 -4.816406 9.578125 -5.621094 9.578125 -6.53125 C 9.550781 -7.417969 9.527344 -8.484375 9.5 -9.683594 C 8.773438 -9.785156 8.042969 -9.8125 7.261719 -9.761719 C 6.480469 -9.65625 5.753906 -9.472656 5.128906 -9.160156 C 4.449219 -8.847656 3.929688 -8.40625 3.539062 -7.859375 C 3.125 -7.289062 2.96875 -6.585938 3.046875 -5.753906 Z M 3.046875 -5.753906 "/></g></g></g><g fill="#051d40" fill-opacity="0.4"><g transform="translate(53.771336, 36.491024)"><g><path d="M 11.710938 -8.304688 C 11.6875 -7.46875 11.503906 -6.765625 11.167969 -6.144531 C 10.800781 -5.519531 10.28125 -4.996094 9.628906 -4.605469 C 8.953125 -4.191406 8.121094 -3.929688 7.15625 -3.800781 C 6.167969 -3.644531 5.023438 -3.671875 3.773438 -3.878906 C 4.007812 -3.460938 4.320312 -3.125 4.738281 -2.863281 C 5.128906 -2.550781 5.570312 -2.34375 6.066406 -2.1875 C 6.53125 -2.03125 7.027344 -1.925781 7.574219 -1.898438 C 8.09375 -1.847656 8.589844 -1.898438 9.109375 -2.003906 C 9.214844 -2.003906 9.371094 -2.03125 9.527344 -2.054688 C 9.65625 -2.054688 9.785156 -2.03125 9.941406 -2.003906 C 10.046875 -1.953125 10.175781 -1.875 10.28125 -1.769531 C 10.386719 -1.640625 10.4375 -1.484375 10.488281 -1.273438 C 10.542969 -0.964844 10.488281 -0.730469 10.359375 -0.574219 C 10.203125 -0.363281 9.996094 -0.234375 9.761719 -0.128906 C 9.5 -0.0273438 9.238281 0.0273438 8.980469 0.078125 C 8.695312 0.105469 8.433594 0.128906 8.226562 0.128906 C 7.183594 0.128906 6.246094 0 5.414062 -0.261719 C 4.527344 -0.519531 3.800781 -0.886719 3.175781 -1.40625 C 2.523438 -1.898438 2.03125 -2.523438 1.664062 -3.253906 C 1.273438 -3.980469 1.066406 -4.816406 1.015625 -5.777344 C 0.964844 -6.714844 1.042969 -7.601562 1.273438 -8.433594 C 1.484375 -9.238281 1.875 -9.96875 2.394531 -10.59375 C 2.890625 -11.21875 3.539062 -11.710938 4.320312 -12.078125 C 5.101562 -12.441406 6.011719 -12.625 7.054688 -12.625 C 8.460938 -12.625 9.605469 -12.257812 10.488281 -11.53125 C 11.324219 -10.800781 11.738281 -9.707031 11.710938 -8.304688 Z M 7.132812 -10.722656 C 6.714844 -10.722656 6.273438 -10.644531 5.804688 -10.542969 C 5.308594 -10.410156 4.867188 -10.175781 4.503906 -9.8125 C 4.113281 -9.449219 3.800781 -8.925781 3.59375 -8.277344 C 3.332031 -7.601562 3.253906 -6.714844 3.359375 -5.621094 C 4.085938 -5.570312 4.839844 -5.542969 5.621094 -5.597656 C 6.351562 -5.597656 7.027344 -5.726562 7.652344 -5.960938 C 8.226562 -6.167969 8.71875 -6.480469 9.082031 -6.949219 C 9.449219 -7.390625 9.605469 -8.015625 9.578125 -8.847656 C 9.578125 -9.03125 9.527344 -9.238281 9.449219 -9.472656 C 9.34375 -9.683594 9.214844 -9.863281 9.03125 -10.074219 C 8.824219 -10.253906 8.589844 -10.410156 8.304688 -10.542969 C 7.992188 -10.644531 7.601562 -10.722656 7.132812 -10.722656 Z M 7.132812 -10.722656 "/></g></g></g><g fill="#051d40" fill-opacity="0.4"><g transform="translate(65.14503, 36.491024)"><g><path d="M 5.960938 -5.933594 C 5.960938 -5.152344 6.011719 -4.527344 6.117188 -4.058594 C 6.167969 -3.539062 6.324219 -3.148438 6.558594 -2.863281 C 6.765625 -2.550781 7.078125 -2.316406 7.496094 -2.1875 C 7.914062 -2.03125 8.460938 -1.898438 9.1875 -1.847656 C 9.316406 -1.898438 9.449219 -1.953125 9.550781 -1.953125 L 9.8125 -1.953125 C 10.074219 -1.953125 10.308594 -1.875 10.488281 -1.691406 C 10.644531 -1.484375 10.75 -1.25 10.75 -0.988281 C 10.75 -0.675781 10.621094 -0.441406 10.308594 -0.261719 C 9.996094 -0.0507812 9.65625 0.0273438 9.34375 0.0273438 C 8.199219 0.0273438 7.261719 -0.105469 6.558594 -0.363281 C 5.832031 -0.625 5.285156 -0.988281 4.894531 -1.457031 C 4.476562 -1.925781 4.214844 -2.472656 4.085938 -3.148438 C 3.929688 -3.773438 3.824219 -4.503906 3.824219 -5.285156 C 3.800781 -5.726562 3.800781 -6.402344 3.800781 -7.3125 C 3.773438 -8.199219 3.75 -9.1875 3.75 -10.28125 C 3.566406 -10.230469 3.410156 -10.203125 3.253906 -10.203125 C 3.070312 -10.175781 2.890625 -10.175781 2.707031 -10.175781 C 2.445312 -10.125 2.210938 -10.125 2.003906 -10.125 C 1.742188 -10.097656 1.484375 -10.125 1.222656 -10.203125 C 0.910156 -10.28125 0.730469 -10.4375 0.625 -10.671875 C 0.496094 -10.878906 0.441406 -11.089844 0.46875 -11.296875 C 0.496094 -11.816406 0.886719 -12.128906 1.613281 -12.234375 C 1.898438 -12.257812 2.238281 -12.285156 2.601562 -12.335938 C 2.96875 -12.335938 3.332031 -12.363281 3.75 -12.390625 C 3.75 -13.066406 3.75 -13.742188 3.773438 -14.394531 C 3.773438 -15.019531 3.773438 -15.589844 3.800781 -16.113281 C 3.800781 -16.5 3.902344 -16.789062 4.164062 -16.945312 C 4.371094 -17.101562 4.605469 -17.179688 4.867188 -17.179688 C 5.207031 -17.179688 5.519531 -17.074219 5.777344 -16.867188 C 6.011719 -16.65625 6.117188 -16.371094 6.089844 -16.007812 C 6.039062 -15.589844 6.011719 -15.070312 6.011719 -14.445312 C 5.988281 -13.820312 5.960938 -13.144531 5.960938 -12.414062 L 7.574219 -12.414062 C 7.9375 -12.414062 8.226562 -12.414062 8.460938 -12.441406 C 8.667969 -12.441406 8.847656 -12.441406 9.003906 -12.46875 C 9.160156 -12.46875 9.371094 -12.492188 9.628906 -12.519531 C 9.8125 -12.519531 9.96875 -12.46875 10.097656 -12.414062 C 10.203125 -12.335938 10.308594 -12.257812 10.410156 -12.15625 C 10.464844 -12.050781 10.515625 -11.921875 10.566406 -11.816406 C 10.566406 -11.660156 10.59375 -11.554688 10.59375 -11.453125 C 10.59375 -11.21875 10.515625 -11.035156 10.359375 -10.878906 C 10.175781 -10.699219 9.941406 -10.566406 9.65625 -10.515625 C 9.292969 -10.464844 9.003906 -10.4375 8.796875 -10.4375 C 8.539062 -10.386719 8.304688 -10.386719 8.070312 -10.386719 C 7.808594 -10.359375 7.546875 -10.359375 7.261719 -10.359375 C 6.949219 -10.332031 6.585938 -10.332031 6.144531 -10.332031 L 5.933594 -10.332031 C 5.910156 -9.394531 5.910156 -8.5625 5.933594 -7.78125 C 5.933594 -7 5.933594 -6.375 5.960938 -5.933594 Z M 5.960938 -5.933594 "/></g></g></g><g fill="#051d40" fill-opacity="0.4"><g transform="translate(75.087195, 36.491024)"><g><path d="M 3.980469 -0.753906 C 3.878906 -0.441406 3.75 -0.207031 3.566406 -0.0507812 C 3.359375 0.105469 3.097656 0.183594 2.785156 0.128906 C 2.523438 0.078125 2.34375 -0.0273438 2.1875 -0.285156 C 2.03125 -0.496094 1.953125 -0.808594 1.976562 -1.171875 L 1.640625 -16.5 C 1.5625 -16.710938 1.5625 -16.917969 1.613281 -17.125 C 1.640625 -17.335938 1.71875 -17.515625 1.875 -17.671875 C 1.976562 -17.804688 2.160156 -17.90625 2.367188 -17.960938 C 2.550781 -17.984375 2.757812 -17.933594 3.019531 -17.828125 C 3.226562 -17.699219 3.382812 -17.515625 3.539062 -17.28125 C 3.644531 -17.023438 3.722656 -16.734375 3.75 -16.398438 L 3.800781 -14.785156 C 3.800781 -14.367188 3.824219 -13.898438 3.851562 -13.378906 C 3.851562 -12.832031 3.851562 -12.257812 3.902344 -11.660156 C 4.476562 -11.867188 5.128906 -12.050781 5.855469 -12.234375 C 6.585938 -12.390625 7.390625 -12.46875 8.304688 -12.46875 C 8.511719 -12.441406 8.773438 -12.414062 9.058594 -12.414062 C 9.316406 -12.390625 9.578125 -12.3125 9.863281 -12.179688 C 10.125 -12.023438 10.359375 -11.816406 10.621094 -11.503906 C 10.855469 -11.191406 11.0625 -10.75 11.269531 -10.175781 C 11.425781 -9.578125 11.582031 -8.824219 11.710938 -7.9375 C 11.816406 -7.027344 11.867188 -5.910156 11.867188 -4.582031 C 11.867188 -4.058594 11.84375 -3.515625 11.816406 -2.96875 C 11.765625 -2.394531 11.738281 -1.796875 11.710938 -1.171875 C 11.660156 -0.808594 11.582031 -0.519531 11.425781 -0.285156 C 11.269531 -0.0273438 10.984375 0.0507812 10.59375 0.0273438 C 10.230469 0 9.996094 -0.105469 9.839844 -0.339844 C 9.683594 -0.546875 9.605469 -0.808594 9.628906 -1.171875 C 9.628906 -1.507812 9.65625 -1.953125 9.683594 -2.472656 L 9.683594 -6.246094 C 9.65625 -6.871094 9.628906 -7.390625 9.605469 -7.808594 C 9.550781 -8.433594 9.472656 -8.925781 9.371094 -9.292969 C 9.238281 -9.628906 9.109375 -9.890625 8.953125 -10.074219 C 8.796875 -10.230469 8.617188 -10.308594 8.460938 -10.359375 C 8.277344 -10.386719 8.121094 -10.410156 7.992188 -10.410156 C 7.15625 -10.410156 6.402344 -10.308594 5.726562 -10.125 C 5.023438 -9.917969 4.425781 -9.734375 3.957031 -9.550781 L 4.035156 -5.804688 C 4.035156 -4.554688 4.058594 -3.515625 4.058594 -2.679688 C 4.058594 -1.613281 4.035156 -0.964844 3.980469 -0.753906 Z M 3.980469 -0.753906 "/></g></g></g><g fill="#051d40" fill-opacity="0.4"><g transform="translate(86.981442, 36.491024)"><g><path d="M 11.710938 -8.304688 C 11.6875 -7.46875 11.503906 -6.765625 11.167969 -6.144531 C 10.800781 -5.519531 10.28125 -4.996094 9.628906 -4.605469 C 8.953125 -4.191406 8.121094 -3.929688 7.15625 -3.800781 C 6.167969 -3.644531 5.023438 -3.671875 3.773438 -3.878906 C 4.007812 -3.460938 4.320312 -3.125 4.738281 -2.863281 C 5.128906 -2.550781 5.570312 -2.34375 6.066406 -2.1875 C 6.53125 -2.03125 7.027344 -1.925781 7.574219 -1.898438 C 8.09375 -1.847656 8.589844 -1.898438 9.109375 -2.003906 C 9.214844 -2.003906 9.371094 -2.03125 9.527344 -2.054688 C 9.65625 -2.054688 9.785156 -2.03125 9.941406 -2.003906 C 10.046875 -1.953125 10.175781 -1.875 10.28125 -1.769531 C 10.386719 -1.640625 10.4375 -1.484375 10.488281 -1.273438 C 10.542969 -0.964844 10.488281 -0.730469 10.359375 -0.574219 C 10.203125 -0.363281 9.996094 -0.234375 9.761719 -0.128906 C 9.5 -0.0273438 9.238281 0.0273438 8.980469 0.078125 C 8.695312 0.105469 8.433594 0.128906 8.226562 0.128906 C 7.183594 0.128906 6.246094 0 5.414062 -0.261719 C 4.527344 -0.519531 3.800781 -0.886719 3.175781 -1.40625 C 2.523438 -1.898438 2.03125 -2.523438 1.664062 -3.253906 C 1.273438 -3.980469 1.066406 -4.816406 1.015625 -5.777344 C 0.964844 -6.714844 1.042969 -7.601562 1.273438 -8.433594 C 1.484375 -9.238281 1.875 -9.96875 2.394531 -10.59375 C 2.890625 -11.21875 3.539062 -11.710938 4.320312 -12.078125 C 5.101562 -12.441406 6.011719 -12.625 7.054688 -12.625 C 8.460938 -12.625 9.605469 -12.257812 10.488281 -11.53125 C 11.324219 -10.800781 11.738281 -9.707031 11.710938 -8.304688 Z M 7.132812 -10.722656 C 6.714844 -10.722656 6.273438 -10.644531 5.804688 -10.542969 C 5.308594 -10.410156 4.867188 -10.175781 4.503906 -9.8125 C 4.113281 -9.449219 3.800781 -8.925781 3.59375 -8.277344 C 3.332031 -7.601562 3.253906 -6.714844 3.359375 -5.621094 C 4.085938 -5.570312 4.839844 -5.542969 5.621094 -5.597656 C 6.351562 -5.597656 7.027344 -5.726562 7.652344 -5.960938 C 8.226562 -6.167969 8.71875 -6.480469 9.082031 -6.949219 C 9.449219 -7.390625 9.605469 -8.015625 9.578125 -8.847656 C 9.578125 -9.03125 9.527344 -9.238281 9.449219 -9.472656 C 9.34375 -9.683594 9.214844 -9.863281 9.03125 -10.074219 C 8.824219 -10.253906 8.589844 -10.410156 8.304688 -10.542969 C 7.992188 -10.644531 7.601562 -10.722656 7.132812 -10.722656 Z M 7.132812 -10.722656 "/></g></g></g><g fill="#051d40" fill-opacity="0.4"><g transform="translate(98.355139, 36.491024)"><g><path d="M 3.980469 -0.753906 C 3.878906 -0.441406 3.75 -0.207031 3.566406 -0.0507812 C 3.359375 0.105469 3.097656 0.183594 2.785156 0.128906 C 2.523438 0.078125 2.34375 -0.0273438 2.1875 -0.285156 C 2.03125 -0.496094 1.953125 -0.808594 1.976562 -1.171875 L 1.640625 -11.296875 C 1.5625 -11.503906 1.5625 -11.710938 1.613281 -11.921875 C 1.640625 -12.128906 1.71875 -12.3125 1.875 -12.46875 C 1.976562 -12.597656 2.160156 -12.703125 2.367188 -12.753906 C 2.550781 -12.78125 2.757812 -12.726562 3.019531 -12.625 C 3.226562 -12.492188 3.382812 -12.3125 3.539062 -12.078125 C 3.644531 -11.816406 3.722656 -11.53125 3.75 -11.191406 L 3.75 -10.800781 C 3.75 -10.644531 3.75 -10.515625 3.773438 -10.386719 C 4.191406 -11.0625 4.683594 -11.582031 5.257812 -11.945312 C 5.832031 -12.257812 6.429688 -12.441406 7.105469 -12.441406 C 7.367188 -12.441406 7.703125 -12.390625 8.070312 -12.335938 C 8.40625 -12.257812 8.746094 -12.101562 9.109375 -11.894531 C 9.421875 -11.632812 9.734375 -11.296875 10.019531 -10.878906 C 10.28125 -10.410156 10.488281 -9.8125 10.621094 -9.082031 C 10.671875 -8.71875 10.621094 -8.40625 10.464844 -8.199219 C 10.28125 -7.964844 10.019531 -7.835938 9.707031 -7.808594 C 9.394531 -7.757812 9.160156 -7.859375 9.003906 -8.070312 C 8.824219 -8.25 8.695312 -8.484375 8.640625 -8.746094 C 8.460938 -9.421875 8.226562 -9.839844 7.914062 -10.046875 C 7.574219 -10.230469 7.234375 -10.332031 6.921875 -10.332031 C 6.714844 -10.332031 6.480469 -10.308594 6.246094 -10.253906 C 5.988281 -10.175781 5.726562 -10.046875 5.464844 -9.890625 C 5.179688 -9.707031 4.917969 -9.472656 4.660156 -9.160156 C 4.371094 -8.847656 4.113281 -8.433594 3.878906 -7.964844 C 3.878906 -7.445312 3.902344 -7 3.957031 -6.609375 C 3.957031 -6.195312 3.980469 -5.777344 4.007812 -5.386719 C 4.007812 -4.972656 4.035156 -4.554688 4.058594 -4.136719 L 4.058594 -2.679688 C 4.058594 -1.613281 4.035156 -0.964844 3.980469 -0.753906 Z M 3.980469 -0.753906 "/></g></g></g><g fill="#09847f" fill-opacity="1"><g transform="translate(14.82971, 35.340362)"><g><path d="M 7.523438 -0.859375 C 7.417969 -0.546875 7.289062 -0.339844 7.078125 -0.183594 C 6.84375 0 6.585938 0.0507812 6.273438 0 C 6.039062 -0.0507812 5.855469 -0.207031 5.699219 -0.496094 C 5.542969 -0.753906 5.464844 -1.042969 5.464844 -1.378906 C 5.441406 -2.523438 5.441406 -3.644531 5.492188 -4.789062 C 5.519531 -5.910156 5.542969 -7.054688 5.597656 -8.199219 C 5.597656 -9.34375 5.621094 -10.488281 5.648438 -11.632812 C 5.648438 -12.753906 5.675781 -13.898438 5.726562 -15.042969 C 4.972656 -15.042969 4.242188 -15.019531 3.566406 -14.964844 C 3.226562 -14.914062 2.835938 -14.886719 2.421875 -14.835938 C 1.953125 -14.757812 1.5625 -14.785156 1.25 -14.914062 C 0.9375 -15.019531 0.703125 -15.199219 0.597656 -15.410156 C 0.46875 -15.589844 0.417969 -15.800781 0.46875 -16.007812 C 0.46875 -16.242188 0.574219 -16.449219 0.78125 -16.632812 C 0.964844 -16.789062 1.25 -16.867188 1.613281 -16.917969 C 2.160156 -16.96875 2.835938 -17.023438 3.671875 -17.074219 C 4.476562 -17.074219 5.308594 -17.101562 6.195312 -17.101562 C 7.808594 -17.101562 9.082031 -17.101562 10.019531 -17.125 C 10.933594 -17.125 11.632812 -17.152344 12.128906 -17.203125 C 12.492188 -17.203125 12.753906 -17.074219 12.910156 -16.839844 C 13.039062 -16.578125 13.09375 -16.371094 13.09375 -16.164062 C 13.09375 -15.929688 13.015625 -15.746094 12.859375 -15.589844 C 12.703125 -15.410156 12.46875 -15.304688 12.179688 -15.277344 C 11.554688 -15.199219 10.878906 -15.148438 10.097656 -15.121094 C 9.316406 -15.070312 8.539062 -15.042969 7.808594 -15.042969 L 7.808594 -9.136719 C 7.78125 -8.148438 7.757812 -7.183594 7.757812 -6.273438 C 7.730469 -5.335938 7.703125 -4.476562 7.703125 -3.75 C 7.679688 -2.96875 7.652344 -2.34375 7.625 -1.847656 C 7.574219 -1.328125 7.546875 -0.988281 7.523438 -0.859375 Z M 7.523438 -0.859375 "/></g></g></g><g fill="#09847f" fill-opacity="1"><g transform="translate(27.192445, 35.340362)"><g><path d="M 1.066406 -5.386719 C 1.066406 -6.066406 1.144531 -6.84375 1.351562 -7.703125 C 1.507812 -8.539062 1.847656 -9.316406 2.316406 -10.074219 C 2.785156 -10.800781 3.4375 -11.398438 4.269531 -11.921875 C 5.074219 -12.390625 6.117188 -12.648438 7.390625 -12.648438 C 8.539062 -12.648438 9.527344 -12.441406 10.332031 -12.050781 C 11.113281 -11.632812 11.765625 -11.140625 12.285156 -10.542969 C 12.753906 -9.917969 13.117188 -9.214844 13.328125 -8.484375 C 13.507812 -7.703125 13.585938 -6.976562 13.585938 -6.273438 C 13.535156 -5.621094 13.378906 -4.917969 13.066406 -4.164062 C 12.753906 -3.382812 12.285156 -2.65625 11.6875 -2.03125 C 11.0625 -1.351562 10.308594 -0.832031 9.421875 -0.441406 C 8.484375 -0.0273438 7.445312 0.105469 6.246094 0 C 5.386719 -0.0507812 4.632812 -0.261719 4.007812 -0.597656 C 3.359375 -0.910156 2.8125 -1.328125 2.394531 -1.847656 C 1.953125 -2.316406 1.613281 -2.890625 1.40625 -3.515625 C 1.171875 -4.113281 1.066406 -4.738281 1.066406 -5.386719 Z M 7.3125 -10.621094 C 6.609375 -10.621094 6.011719 -10.464844 5.519531 -10.175781 C 4.996094 -9.863281 4.605469 -9.449219 4.292969 -8.953125 C 3.957031 -8.433594 3.722656 -7.835938 3.59375 -7.210938 C 3.4375 -6.53125 3.382812 -5.882812 3.4375 -5.207031 C 3.4375 -4.867188 3.515625 -4.527344 3.644531 -4.191406 C 3.75 -3.824219 3.902344 -3.488281 4.164062 -3.203125 C 4.371094 -2.890625 4.683594 -2.601562 5.050781 -2.394531 C 5.386719 -2.160156 5.804688 -2.03125 6.324219 -1.976562 C 7.835938 -1.898438 9.03125 -2.265625 9.941406 -3.070312 C 10.828125 -3.851562 11.269531 -5.050781 11.269531 -6.609375 C 11.269531 -7.757812 10.90625 -8.71875 10.230469 -9.5 C 9.5 -10.230469 8.539062 -10.621094 7.3125 -10.621094 Z M 7.3125 -10.621094 "/></g></g></g><g fill="#09847f" fill-opacity="1"><g transform="translate(40.726428, 35.340362)"><g><path d="M 7.417969 -11.6875 C 7.679688 -11.6875 7.992188 -11.660156 8.355469 -11.632812 C 8.695312 -11.582031 9.03125 -11.554688 9.394531 -11.503906 C 9.34375 -11.6875 9.371094 -11.867188 9.449219 -12.078125 C 9.5 -12.234375 9.578125 -12.390625 9.734375 -12.519531 C 9.839844 -12.625 9.996094 -12.703125 10.203125 -12.753906 C 10.386719 -12.753906 10.59375 -12.726562 10.828125 -12.625 C 11.035156 -12.492188 11.191406 -12.3125 11.347656 -12.078125 C 11.453125 -11.816406 11.53125 -11.53125 11.554688 -11.191406 L 11.609375 -9.578125 C 11.609375 -8.902344 11.632812 -8.148438 11.6875 -7.289062 C 11.710938 -6.402344 11.738281 -5.464844 11.789062 -4.476562 C 11.789062 -3.488281 11.816406 -2.472656 11.84375 -1.484375 C 11.84375 -0.441406 11.867188 0.496094 11.867188 1.429688 C 11.867188 2.003906 11.816406 2.523438 11.738281 2.96875 C 11.632812 3.382812 11.453125 3.722656 11.21875 4.007812 C 10.957031 4.269531 10.621094 4.449219 10.203125 4.605469 C 9.761719 4.710938 9.214844 4.789062 8.5625 4.789062 C 7.914062 4.789062 7.261719 4.738281 6.585938 4.632812 C 5.882812 4.527344 5.257812 4.371094 4.710938 4.214844 C 4.136719 4.007812 3.695312 3.800781 3.332031 3.566406 C 2.96875 3.304688 2.785156 3.046875 2.785156 2.757812 C 2.785156 2.445312 2.863281 2.210938 3.046875 2.109375 C 3.203125 1.976562 3.410156 1.925781 3.644531 1.925781 C 3.722656 1.925781 3.800781 1.925781 3.902344 1.953125 C 3.980469 1.953125 4.058594 1.953125 4.164062 1.976562 C 4.527344 2.082031 4.894531 2.160156 5.230469 2.265625 C 5.542969 2.34375 5.855469 2.421875 6.195312 2.5 C 6.507812 2.550781 6.871094 2.578125 7.234375 2.628906 C 7.601562 2.65625 8.015625 2.679688 8.511719 2.679688 C 9.058594 2.679688 9.394531 2.550781 9.550781 2.316406 C 9.683594 2.054688 9.761719 1.691406 9.761719 1.222656 L 9.761719 -0.285156 C 9.734375 -0.703125 9.707031 -1.273438 9.707031 -2.003906 C 9.058594 -1.429688 8.328125 -1.015625 7.546875 -0.730469 C 6.714844 -0.417969 5.960938 -0.261719 5.230469 -0.261719 C 4.710938 -0.261719 4.214844 -0.390625 3.695312 -0.675781 C 3.175781 -0.9375 2.707031 -1.300781 2.289062 -1.820312 C 1.875 -2.289062 1.535156 -2.890625 1.273438 -3.566406 C 1.015625 -4.242188 0.886719 -4.972656 0.886719 -5.804688 C 0.886719 -6.742188 1.066406 -7.601562 1.457031 -8.355469 C 1.820312 -9.082031 2.316406 -9.683594 2.941406 -10.203125 C 3.539062 -10.671875 4.242188 -11.0625 5.023438 -11.324219 C 5.804688 -11.554688 6.585938 -11.6875 7.417969 -11.6875 Z M 3.046875 -5.753906 C 3.125 -4.738281 3.410156 -3.929688 3.878906 -3.304688 C 4.320312 -2.65625 4.894531 -2.316406 5.621094 -2.289062 C 6.195312 -2.265625 6.84375 -2.421875 7.574219 -2.757812 C 8.304688 -3.070312 8.980469 -3.515625 9.65625 -4.085938 C 9.605469 -4.816406 9.578125 -5.621094 9.578125 -6.53125 C 9.550781 -7.417969 9.527344 -8.484375 9.5 -9.683594 C 8.773438 -9.785156 8.042969 -9.8125 7.261719 -9.761719 C 6.480469 -9.65625 5.753906 -9.472656 5.128906 -9.160156 C 4.449219 -8.847656 3.929688 -8.40625 3.539062 -7.859375 C 3.125 -7.289062 2.96875 -6.585938 3.046875 -5.753906 Z M 3.046875 -5.753906 "/></g></g></g><g fill="#09847f" fill-opacity="1"><g transform="translate(52.620674, 35.340362)"><g><path d="M 11.710938 -8.304688 C 11.6875 -7.46875 11.503906 -6.765625 11.167969 -6.144531 C 10.800781 -5.519531 10.28125 -4.996094 9.628906 -4.605469 C 8.953125 -4.191406 8.121094 -3.929688 7.15625 -3.800781 C 6.167969 -3.644531 5.023438 -3.671875 3.773438 -3.878906 C 4.007812 -3.460938 4.320312 -3.125 4.738281 -2.863281 C 5.128906 -2.550781 5.570312 -2.34375 6.066406 -2.1875 C 6.53125 -2.03125 7.027344 -1.925781 7.574219 -1.898438 C 8.09375 -1.847656 8.589844 -1.898438 9.109375 -2.003906 C 9.214844 -2.003906 9.371094 -2.03125 9.527344 -2.054688 C 9.65625 -2.054688 9.785156 -2.03125 9.941406 -2.003906 C 10.046875 -1.953125 10.175781 -1.875 10.28125 -1.769531 C 10.386719 -1.640625 10.4375 -1.484375 10.488281 -1.273438 C 10.542969 -0.964844 10.488281 -0.730469 10.359375 -0.574219 C 10.203125 -0.363281 9.996094 -0.234375 9.761719 -0.128906 C 9.5 -0.0273438 9.238281 0.0273438 8.980469 0.078125 C 8.695312 0.105469 8.433594 0.128906 8.226562 0.128906 C 7.183594 0.128906 6.246094 0 5.414062 -0.261719 C 4.527344 -0.519531 3.800781 -0.886719 3.175781 -1.40625 C 2.523438 -1.898438 2.03125 -2.523438 1.664062 -3.253906 C 1.273438 -3.980469 1.066406 -4.816406 1.015625 -5.777344 C 0.964844 -6.714844 1.042969 -7.601562 1.273438 -8.433594 C 1.484375 -9.238281 1.875 -9.96875 2.394531 -10.59375 C 2.890625 -11.21875 3.539062 -11.710938 4.320312 -12.078125 C 5.101562 -12.441406 6.011719 -12.625 7.054688 -12.625 C 8.460938 -12.625 9.605469 -12.257812 10.488281 -11.53125 C 11.324219 -10.800781 11.738281 -9.707031 11.710938 -8.304688 Z M 7.132812 -10.722656 C 6.714844 -10.722656 6.273438 -10.644531 5.804688 -10.542969 C 5.308594 -10.410156 4.867188 -10.175781 4.503906 -9.8125 C 4.113281 -9.449219 3.800781 -8.925781 3.59375 -8.277344 C 3.332031 -7.601562 3.253906 -6.714844 3.359375 -5.621094 C 4.085938 -5.570312 4.839844 -5.542969 5.621094 -5.597656 C 6.351562 -5.597656 7.027344 -5.726562 7.652344 -5.960938 C 8.226562 -6.167969 8.71875 -6.480469 9.082031 -6.949219 C 9.449219 -7.390625 9.605469 -8.015625 9.578125 -8.847656 C 9.578125 -9.03125 9.527344 -9.238281 9.449219 -9.472656 C 9.34375 -9.683594 9.214844 -9.863281 9.03125 -10.074219 C 8.824219 -10.253906 8.589844 -10.410156 8.304688 -10.542969 C 7.992188 -10.644531 7.601562 -10.722656 7.132812 -10.722656 Z M 7.132812 -10.722656 "/></g></g></g><g fill="#09847f" fill-opacity="1"><g transform="translate(63.994368, 35.340362)"><g><path d="M 5.960938 -5.933594 C 5.960938 -5.152344 6.011719 -4.527344 6.117188 -4.058594 C 6.167969 -3.539062 6.324219 -3.148438 6.558594 -2.863281 C 6.765625 -2.550781 7.078125 -2.316406 7.496094 -2.1875 C 7.914062 -2.03125 8.460938 -1.898438 9.1875 -1.847656 C 9.316406 -1.898438 9.449219 -1.953125 9.550781 -1.953125 L 9.8125 -1.953125 C 10.074219 -1.953125 10.308594 -1.875 10.488281 -1.691406 C 10.644531 -1.484375 10.75 -1.25 10.75 -0.988281 C 10.75 -0.675781 10.621094 -0.441406 10.308594 -0.261719 C 9.996094 -0.0507812 9.65625 0.0273438 9.34375 0.0273438 C 8.199219 0.0273438 7.261719 -0.105469 6.558594 -0.363281 C 5.832031 -0.625 5.285156 -0.988281 4.894531 -1.457031 C 4.476562 -1.925781 4.214844 -2.472656 4.085938 -3.148438 C 3.929688 -3.773438 3.824219 -4.503906 3.824219 -5.285156 C 3.800781 -5.726562 3.800781 -6.402344 3.800781 -7.3125 C 3.773438 -8.199219 3.75 -9.1875 3.75 -10.28125 C 3.566406 -10.230469 3.410156 -10.203125 3.253906 -10.203125 C 3.070312 -10.175781 2.890625 -10.175781 2.707031 -10.175781 C 2.445312 -10.125 2.210938 -10.125 2.003906 -10.125 C 1.742188 -10.097656 1.484375 -10.125 1.222656 -10.203125 C 0.910156 -10.28125 0.730469 -10.4375 0.625 -10.671875 C 0.496094 -10.878906 0.441406 -11.089844 0.46875 -11.296875 C 0.496094 -11.816406 0.886719 -12.128906 1.613281 -12.234375 C 1.898438 -12.257812 2.238281 -12.285156 2.601562 -12.335938 C 2.96875 -12.335938 3.332031 -12.363281 3.75 -12.390625 C 3.75 -13.066406 3.75 -13.742188 3.773438 -14.394531 C 3.773438 -15.019531 3.773438 -15.589844 3.800781 -16.113281 C 3.800781 -16.5 3.902344 -16.789062 4.164062 -16.945312 C 4.371094 -17.101562 4.605469 -17.179688 4.867188 -17.179688 C 5.207031 -17.179688 5.519531 -17.074219 5.777344 -16.867188 C 6.011719 -16.65625 6.117188 -16.371094 6.089844 -16.007812 C 6.039062 -15.589844 6.011719 -15.070312 6.011719 -14.445312 C 5.988281 -13.820312 5.960938 -13.144531 5.960938 -12.414062 L 7.574219 -12.414062 C 7.9375 -12.414062 8.226562 -12.414062 8.460938 -12.441406 C 8.667969 -12.441406 8.847656 -12.441406 9.003906 -12.46875 C 9.160156 -12.46875 9.371094 -12.492188 9.628906 -12.519531 C 9.8125 -12.519531 9.96875 -12.46875 10.097656 -12.414062 C 10.203125 -12.335938 10.308594 -12.257812 10.410156 -12.15625 C 10.464844 -12.050781 10.515625 -11.921875 10.566406 -11.816406 C 10.566406 -11.660156 10.59375 -11.554688 10.59375 -11.453125 C 10.59375 -11.21875 10.515625 -11.035156 10.359375 -10.878906 C 10.175781 -10.699219 9.941406 -10.566406 9.65625 -10.515625 C 9.292969 -10.464844 9.003906 -10.4375 8.796875 -10.4375 C 8.539062 -10.386719 8.304688 -10.386719 8.070312 -10.386719 C 7.808594 -10.359375 7.546875 -10.359375 7.261719 -10.359375 C 6.949219 -10.332031 6.585938 -10.332031 6.144531 -10.332031 L 5.933594 -10.332031 C 5.910156 -9.394531 5.910156 -8.5625 5.933594 -7.78125 C 5.933594 -7 5.933594 -6.375 5.960938 -5.933594 Z M 5.960938 -5.933594 "/></g></g></g><g fill="#09847f" fill-opacity="1"><g transform="translate(73.936533, 35.340362)"><g><path d="M 3.980469 -0.753906 C 3.878906 -0.441406 3.75 -0.207031 3.566406 -0.0507812 C 3.359375 0.105469 3.097656 0.183594 2.785156 0.128906 C 2.523438 0.078125 2.34375 -0.0273438 2.1875 -0.285156 C 2.03125 -0.496094 1.953125 -0.808594 1.976562 -1.171875 L 1.640625 -16.5 C 1.5625 -16.710938 1.5625 -16.917969 1.613281 -17.125 C 1.640625 -17.335938 1.71875 -17.515625 1.875 -17.671875 C 1.976562 -17.804688 2.160156 -17.90625 2.367188 -17.960938 C 2.550781 -17.984375 2.757812 -17.933594 3.019531 -17.828125 C 3.226562 -17.699219 3.382812 -17.515625 3.539062 -17.28125 C 3.644531 -17.023438 3.722656 -16.734375 3.75 -16.398438 L 3.800781 -14.785156 C 3.800781 -14.367188 3.824219 -13.898438 3.851562 -13.378906 C 3.851562 -12.832031 3.851562 -12.257812 3.902344 -11.660156 C 4.476562 -11.867188 5.128906 -12.050781 5.855469 -12.234375 C 6.585938 -12.390625 7.390625 -12.46875 8.304688 -12.46875 C 8.511719 -12.441406 8.773438 -12.414062 9.058594 -12.414062 C 9.316406 -12.390625 9.578125 -12.3125 9.863281 -12.179688 C 10.125 -12.023438 10.359375 -11.816406 10.621094 -11.503906 C 10.855469 -11.191406 11.0625 -10.75 11.269531 -10.175781 C 11.425781 -9.578125 11.582031 -8.824219 11.710938 -7.9375 C 11.816406 -7.027344 11.867188 -5.910156 11.867188 -4.582031 C 11.867188 -4.058594 11.84375 -3.515625 11.816406 -2.96875 C 11.765625 -2.394531 11.738281 -1.796875 11.710938 -1.171875 C 11.660156 -0.808594 11.582031 -0.519531 11.425781 -0.285156 C 11.269531 -0.0273438 10.984375 0.0507812 10.59375 0.0273438 C 10.230469 0 9.996094 -0.105469 9.839844 -0.339844 C 9.683594 -0.546875 9.605469 -0.808594 9.628906 -1.171875 C 9.628906 -1.507812 9.65625 -1.953125 9.683594 -2.472656 L 9.683594 -6.246094 C 9.65625 -6.871094 9.628906 -7.390625 9.605469 -7.808594 C 9.550781 -8.433594 9.472656 -8.925781 9.371094 -9.292969 C 9.238281 -9.628906 9.109375 -9.890625 8.953125 -10.074219 C 8.796875 -10.230469 8.617188 -10.308594 8.460938 -10.359375 C 8.277344 -10.386719 8.121094 -10.410156 7.992188 -10.410156 C 7.15625 -10.410156 6.402344 -10.308594 5.726562 -10.125 C 5.023438 -9.917969 4.425781 -9.734375 3.957031 -9.550781 L 4.035156 -5.804688 C 4.035156 -4.554688 4.058594 -3.515625 4.058594 -2.679688 C 4.058594 -1.613281 4.035156 -0.964844 3.980469 -0.753906 Z M 3.980469 -0.753906 "/></g></g></g><g fill="#09847f" fill-opacity="1"><g transform="translate(85.83078, 35.340362)"><g><path d="M 11.710938 -8.304688 C 11.6875 -7.46875 11.503906 -6.765625 11.167969 -6.144531 C 10.800781 -5.519531 10.28125 -4.996094 9.628906 -4.605469 C 8.953125 -4.191406 8.121094 -3.929688 7.15625 -3.800781 C 6.167969 -3.644531 5.023438 -3.671875 3.773438 -3.878906 C 4.007812 -3.460938 4.320312 -3.125 4.738281 -2.863281 C 5.128906 -2.550781 5.570312 -2.34375 6.066406 -2.1875 C 6.53125 -2.03125 7.027344 -1.925781 7.574219 -1.898438 C 8.09375 -1.847656 8.589844 -1.898438 9.109375 -2.003906 C 9.214844 -2.003906 9.371094 -2.03125 9.527344 -2.054688 C 9.65625 -2.054688 9.785156 -2.03125 9.941406 -2.003906 C 10.046875 -1.953125 10.175781 -1.875 10.28125 -1.769531 C 10.386719 -1.640625 10.4375 -1.484375 10.488281 -1.273438 C 10.542969 -0.964844 10.488281 -0.730469 10.359375 -0.574219 C 10.203125 -0.363281 9.996094 -0.234375 9.761719 -0.128906 C 9.5 -0.0273438 9.238281 0.0273438 8.980469 0.078125 C 8.695312 0.105469 8.433594 0.128906 8.226562 0.128906 C 7.183594 0.128906 6.246094 0 5.414062 -0.261719 C 4.527344 -0.519531 3.800781 -0.886719 3.175781 -1.40625 C 2.523438 -1.898438 2.03125 -2.523438 1.664062 -3.253906 C 1.273438 -3.980469 1.066406 -4.816406 1.015625 -5.777344 C 0.964844 -6.714844 1.042969 -7.601562 1.273438 -8.433594 C 1.484375 -9.238281 1.875 -9.96875 2.394531 -10.59375 C 2.890625 -11.21875 3.539062 -11.710938 4.320312 -12.078125 C 5.101562 -12.441406 6.011719 -12.625 7.054688 -12.625 C 8.460938 -12.625 9.605469 -12.257812 10.488281 -11.53125 C 11.324219 -10.800781 11.738281 -9.707031 11.710938 -8.304688 Z M 7.132812 -10.722656 C 6.714844 -10.722656 6.273438 -10.644531 5.804688 -10.542969 C 5.308594 -10.410156 4.867188 -10.175781 4.503906 -9.8125 C 4.113281 -9.449219 3.800781 -8.925781 3.59375 -8.277344 C 3.332031 -7.601562 3.253906 -6.714844 3.359375 -5.621094 C 4.085938 -5.570312 4.839844 -5.542969 5.621094 -5.597656 C 6.351562 -5.597656 7.027344 -5.726562 7.652344 -5.960938 C 8.226562 -6.167969 8.71875 -6.480469 9.082031 -6.949219 C 9.449219 -7.390625 9.605469 -8.015625 9.578125 -8.847656 C 9.578125 -9.03125 9.527344 -9.238281 9.449219 -9.472656 C 9.34375 -9.683594 9.214844 -9.863281 9.03125 -10.074219 C 8.824219 -10.253906 8.589844 -10.410156 8.304688 -10.542969 C 7.992188 -10.644531 7.601562 -10.722656 7.132812 -10.722656 Z M 7.132812 -10.722656 "/></g></g></g><g fill="#09847f" fill-opacity="1"><g transform="translate(97.204477, 35.340362)"><g><path d="M 3.980469 -0.753906 C 3.878906 -0.441406 3.75 -0.207031 3.566406 -0.0507812 C 3.359375 0.105469 3.097656 0.183594 2.785156 0.128906 C 2.523438 0.078125 2.34375 -0.0273438 2.1875 -0.285156 C 2.03125 -0.496094 1.953125 -0.808594 1.976562 -1.171875 L 1.640625 -11.296875 C 1.5625 -11.503906 1.5625 -11.710938 1.613281 -11.921875 C 1.640625 -12.128906 1.71875 -12.3125 1.875 -12.46875 C 1.976562 -12.597656 2.160156 -12.703125 2.367188 -12.753906 C 2.550781 -12.78125 2.757812 -12.726562 3.019531 -12.625 C 3.226562 -12.492188 3.382812 -12.3125 3.539062 -12.078125 C 3.644531 -11.816406 3.722656 -11.53125 3.75 -11.191406 L 3.75 -10.800781 C 3.75 -10.644531 3.75 -10.515625 3.773438 -10.386719 C 4.191406 -11.0625 4.683594 -11.582031 5.257812 -11.945312 C 5.832031 -12.257812 6.429688 -12.441406 7.105469 -12.441406 C 7.367188 -12.441406 7.703125 -12.390625 8.070312 -12.335938 C 8.40625 -12.257812 8.746094 -12.101562 9.109375 -11.894531 C 9.421875 -11.632812 9.734375 -11.296875 10.019531 -10.878906 C 10.28125 -10.410156 10.488281 -9.8125 10.621094 -9.082031 C 10.671875 -8.71875 10.621094 -8.40625 10.464844 -8.199219 C 10.28125 -7.964844 10.019531 -7.835938 9.707031 -7.808594 C 9.394531 -7.757812 9.160156 -7.859375 9.003906 -8.070312 C 8.824219 -8.25 8.695312 -8.484375 8.640625 -8.746094 C 8.460938 -9.421875 8.226562 -9.839844 7.914062 -10.046875 C 7.574219 -10.230469 7.234375 -10.332031 6.921875 -10.332031 C 6.714844 -10.332031 6.480469 -10.308594 6.246094 -10.253906 C 5.988281 -10.175781 5.726562 -10.046875 5.464844 -9.890625 C 5.179688 -9.707031 4.917969 -9.472656 4.660156 -9.160156 C 4.371094 -8.847656 4.113281 -8.433594 3.878906 -7.964844 C 3.878906 -7.445312 3.902344 -7 3.957031 -6.609375 C 3.957031 -6.195312 3.980469 -5.777344 4.007812 -5.386719 C 4.007812 -4.972656 4.035156 -4.554688 4.058594 -4.136719 L 4.058594 -2.679688 C 4.058594 -1.613281 4.035156 -0.964844 3.980469 -0.753906 Z M 3.980469 -0.753906 "/></g></g></g><path fill="#09847f" d="M 92.652344 3.945312 L 86.914062 2.78125 L 85.644531 3.59375 L 89.804688 6.820312 C 90.753906 5.863281 91.703125 4.90625 92.652344 3.945312 Z M 92.652344 3.945312 " fill-opacity="1" fill-rule="nonzero"/><g clip-path="url(#1baa18db0b)"><path fill="#09847f" d="M 94.136719 10.539062 L 97.65625 15.144531 L 98.464844 13.867188 L 97.25 7.792969 C 96.1875 8.683594 95.160156 9.609375 94.136719 10.539062 Z M 94.136719 10.539062 " fill-opacity="1" fill-rule="nonzero"/></g><g clip-path="url(#7814af47b7)"><path fill="#09847f" d="M 100.378906 1.164062 C 99.664062 0.8125 96.929688 1.136719 96.03125 1.824219 C 94.699219 2.839844 86.5625 11.273438 86.5625 11.273438 L 83.492188 11.851562 L 82.542969 13.171875 C 82.542969 13.171875 84.109375 13.460938 85.695312 13.769531 C 86.433594 13.914062 87.6875 13.53125 87.6875 13.53125 C 91.375 12.679688 103.210938 2.554688 100.378906 1.164062 Z M 99.882812 2.339844 C 99.824219 2.609375 99.648438 2.839844 99.453125 3.023438 C 99.351562 3.117188 99.238281 3.207031 99.121094 3.285156 C 99.0625 3.324219 98.839844 3.414062 98.8125 3.46875 C 99.695312 1.582031 98.007812 1.394531 98.007812 1.394531 C 98.410156 1.304688 98.898438 1.183594 99.304688 1.308594 C 99.738281 1.441406 99.96875 1.90625 99.882812 2.339844 Z M 99.882812 2.339844 " fill-opacity="1" fill-rule="nonzero"/></g></svg>