<svg xmlns="http://www.w3.org/2000/svg" xmlns:xlink="http://www.w3.org/1999/xlink" width="241" zoomAndPan="magnify" viewBox="0 0 180.75 116.249996" height="155" preserveAspectRatio="xMidYMid meet" version="1.0"><defs><filter x="0%" y="0%" width="100%" height="100%" id="fac8dbab12"><feColorMatrix values="0 0 0 0 1 0 0 0 0 1 0 0 0 0 1 0 0 0 1 0" color-interpolation-filters="sRGB"/></filter><g/><mask id="3590384270"><g filter="url(#fac8dbab12)"><rect x="-18.075" width="216.9" fill="#000000" y="-11.625" height="139.499996" fill-opacity="0.3765"/></g></mask><clipPath id="a8b7c7abde"><path d="M 62 0.601562 L 73 0.601562 L 73 10 L 62 10 Z M 62 0.601562 " clip-rule="nonzero"/></clipPath><clipPath id="88a0ff1290"><path d="M 0.59375 7.320312 L 72.613281 0.101562 L 74.101562 14.953125 L 2.082031 22.171875 Z M 0.59375 7.320312 " clip-rule="nonzero"/></clipPath><clipPath id="cea95d18d7"><path d="M 0.59375 7.320312 L 72.613281 0.101562 L 74.101562 14.953125 L 2.082031 22.171875 Z M 0.59375 7.320312 " clip-rule="nonzero"/></clipPath><clipPath id="443a793cfa"><path d="M 2 1 L 72 1 L 72 22 L 2 22 Z M 2 1 " clip-rule="nonzero"/></clipPath><clipPath id="0860011869"><path d="M 0.59375 7.320312 L 72.613281 0.101562 L 74.101562 14.953125 L 2.082031 22.171875 Z M 0.59375 7.320312 " clip-rule="nonzero"/></clipPath><clipPath id="8788886911"><path d="M 0.59375 7.320312 L 72.613281 0.101562 L 74.101562 14.953125 L 2.082031 22.171875 Z M 0.59375 7.320312 " clip-rule="nonzero"/></clipPath><clipPath id="c07cdfcf72"><rect x="0" width="75" y="0" height="23"/></clipPath><clipPath id="de72f5e38f"><path d="M 125 44 L 130 44 L 130 51.46875 L 125 51.46875 Z M 125 44 " clip-rule="nonzero"/></clipPath><clipPath id="c6b9d98743"><path d="M 114.730469 38.035156 L 132 38.035156 L 132 51 L 114.730469 51 Z M 114.730469 38.035156 " clip-rule="nonzero"/></clipPath></defs><g mask="url(#3590384270)"><g transform="matrix(1, 0, 0, 1, 41, 49)"><g clip-path="url(#c07cdfcf72)"><g clip-path="url(#a8b7c7abde)"><g clip-path="url(#88a0ff1290)"><g clip-path="url(#cea95d18d7)"><path fill="#fd8c04" d="M 67.324219 9.675781 C 67.175781 9.691406 67.019531 9.65625 66.886719 9.570312 C 66.5625 9.367188 66.464844 8.9375 66.667969 8.613281 L 70.582031 2.335938 L 63.398438 3.609375 C 63.023438 3.683594 62.664062 3.425781 62.59375 3.046875 C 62.527344 2.667969 62.78125 2.304688 63.15625 2.242188 L 71.878906 0.695312 C 72.128906 0.648438 72.421875 0.761719 72.574219 0.992188 C 72.726562 1.21875 72.730469 1.515625 72.585938 1.75 L 67.839844 9.351562 C 67.722656 9.542969 67.527344 9.65625 67.324219 9.675781 " fill-opacity="1" fill-rule="nonzero"/></g></g></g><g clip-path="url(#443a793cfa)"><g clip-path="url(#0860011869)"><g clip-path="url(#8788886911)"><path fill="#fd8c04" d="M 43.964844 12.519531 C 42.746094 13.410156 41.824219 14.351562 41.613281 15.175781 C 41.511719 15.570312 41.578125 15.914062 41.828125 16.257812 C 42.082031 16.609375 42.292969 16.761719 42.503906 16.71875 C 43.089844 16.574219 43.855469 15.203125 43.980469 14.324219 C 44.070312 13.679688 44.066406 13.082031 43.964844 12.519531 Z M 42.601562 18.109375 C 42.117188 18.160156 41.386719 18.023438 40.703125 17.070312 C 40.21875 16.394531 40.066406 15.621094 40.269531 14.828125 C 40.621094 13.453125 42.027344 12.164062 43.484375 11.152344 C 43.191406 10.609375 42.78125 10.113281 42.25 9.65625 C 37.742188 5.773438 25.980469 6.152344 22.007812 7.355469 C 15.699219 9.269531 7.03125 14.058594 3.371094 21.273438 C 3.195312 21.617188 2.78125 21.75 2.4375 21.578125 C 2.097656 21.402344 1.960938 20.984375 2.136719 20.640625 C 5.996094 13.039062 15.035156 8.011719 21.605469 6.023438 C 25.589844 4.816406 38.074219 4.222656 43.152344 8.597656 C 43.785156 9.144531 44.285156 9.746094 44.65625 10.398438 C 45.570312 9.851562 46.394531 9.441406 46.859375 9.222656 C 49.421875 8.015625 52.550781 7.546875 55.859375 7.050781 C 61.257812 6.238281 66.839844 5.402344 70.519531 1.265625 C 70.773438 0.980469 71.210938 0.953125 71.496094 1.210938 C 71.78125 1.46875 71.808594 1.90625 71.554688 2.195312 C 67.542969 6.707031 61.445312 7.621094 56.066406 8.425781 C 52.859375 8.90625 49.828125 9.363281 47.449219 10.484375 C 46.695312 10.839844 45.921875 11.253906 45.199219 11.699219 C 45.441406 12.566406 45.492188 13.507812 45.351562 14.519531 C 45.207031 15.542969 44.292969 17.707031 42.839844 18.070312 C 42.769531 18.085938 42.6875 18.101562 42.601562 18.109375 " fill-opacity="1" fill-rule="nonzero"/></g></g></g></g></g></g><g fill="#051d40" fill-opacity="0.4"><g transform="translate(38.592695, 55.200804)"><g><path d="M 5.402344 -0.617188 C 5.328125 -0.394531 5.234375 -0.242188 5.085938 -0.132812 C 4.917969 0 4.730469 0.0390625 4.503906 0 C 4.335938 -0.0390625 4.207031 -0.148438 4.09375 -0.355469 C 3.980469 -0.542969 3.925781 -0.746094 3.925781 -0.992188 C 3.90625 -1.8125 3.90625 -2.617188 3.945312 -3.441406 C 3.964844 -4.242188 3.980469 -5.066406 4.019531 -5.890625 C 4.019531 -6.710938 4.039062 -7.535156 4.058594 -8.355469 C 4.058594 -9.160156 4.074219 -9.984375 4.113281 -10.804688 C 3.570312 -10.804688 3.046875 -10.789062 2.5625 -10.75 C 2.316406 -10.710938 2.039062 -10.695312 1.738281 -10.65625 C 1.402344 -10.601562 1.121094 -10.621094 0.898438 -10.710938 C 0.671875 -10.789062 0.503906 -10.917969 0.429688 -11.066406 C 0.335938 -11.199219 0.300781 -11.347656 0.335938 -11.496094 C 0.335938 -11.667969 0.410156 -11.816406 0.5625 -11.945312 C 0.691406 -12.058594 0.898438 -12.113281 1.160156 -12.152344 C 1.550781 -12.191406 2.039062 -12.226562 2.636719 -12.265625 C 3.214844 -12.265625 3.8125 -12.28125 4.449219 -12.28125 C 5.609375 -12.28125 6.523438 -12.28125 7.199219 -12.300781 C 7.851562 -12.300781 8.355469 -12.320312 8.710938 -12.359375 C 8.972656 -12.359375 9.160156 -12.265625 9.273438 -12.097656 C 9.367188 -11.910156 9.402344 -11.757812 9.402344 -11.609375 C 9.402344 -11.441406 9.347656 -11.3125 9.234375 -11.199219 C 9.125 -11.066406 8.957031 -10.992188 8.75 -10.972656 C 8.300781 -10.917969 7.816406 -10.882812 7.253906 -10.863281 C 6.691406 -10.824219 6.132812 -10.804688 5.609375 -10.804688 L 5.609375 -6.5625 C 5.589844 -5.851562 5.570312 -5.160156 5.570312 -4.503906 C 5.550781 -3.832031 5.535156 -3.214844 5.535156 -2.691406 C 5.515625 -2.132812 5.496094 -1.683594 5.476562 -1.328125 C 5.441406 -0.953125 5.421875 -0.710938 5.402344 -0.617188 Z M 5.402344 -0.617188 "/></g></g></g><g fill="#051d40" fill-opacity="0.4"><g transform="translate(47.471227, 55.200804)"><g><path d="M 2.859375 -0.542969 C 2.785156 -0.316406 2.691406 -0.148438 2.5625 -0.0390625 C 2.410156 0.0742188 2.226562 0.132812 2 0.09375 C 1.8125 0.0546875 1.683594 -0.0195312 1.570312 -0.207031 C 1.457031 -0.355469 1.402344 -0.578125 1.421875 -0.839844 L 1.179688 -8.113281 C 1.121094 -8.261719 1.121094 -8.414062 1.160156 -8.5625 C 1.179688 -8.710938 1.234375 -8.84375 1.347656 -8.957031 C 1.421875 -9.046875 1.550781 -9.125 1.703125 -9.160156 C 1.832031 -9.179688 1.980469 -9.140625 2.167969 -9.066406 C 2.316406 -8.972656 2.429688 -8.84375 2.542969 -8.675781 C 2.617188 -8.488281 2.671875 -8.28125 2.691406 -8.039062 L 2.691406 -7.757812 C 2.691406 -7.648438 2.691406 -7.554688 2.710938 -7.460938 C 3.011719 -7.945312 3.363281 -8.320312 3.777344 -8.582031 C 4.1875 -8.804688 4.617188 -8.9375 5.105469 -8.9375 C 5.289062 -8.9375 5.535156 -8.898438 5.796875 -8.863281 C 6.039062 -8.804688 6.28125 -8.695312 6.542969 -8.542969 C 6.769531 -8.355469 6.992188 -8.113281 7.199219 -7.816406 C 7.386719 -7.476562 7.535156 -7.046875 7.628906 -6.523438 C 7.664062 -6.261719 7.628906 -6.039062 7.515625 -5.890625 C 7.386719 -5.722656 7.199219 -5.628906 6.972656 -5.609375 C 6.75 -5.570312 6.582031 -5.644531 6.46875 -5.796875 C 6.335938 -5.925781 6.246094 -6.09375 6.207031 -6.28125 C 6.074219 -6.769531 5.90625 -7.066406 5.683594 -7.214844 C 5.441406 -7.347656 5.199219 -7.421875 4.972656 -7.421875 C 4.824219 -7.421875 4.65625 -7.402344 4.488281 -7.367188 C 4.300781 -7.308594 4.113281 -7.214844 3.925781 -7.105469 C 3.71875 -6.972656 3.535156 -6.804688 3.347656 -6.582031 C 3.140625 -6.355469 2.953125 -6.058594 2.785156 -5.722656 C 2.785156 -5.347656 2.804688 -5.027344 2.839844 -4.75 C 2.839844 -4.449219 2.859375 -4.152344 2.878906 -3.871094 C 2.878906 -3.570312 2.898438 -3.273438 2.917969 -2.972656 L 2.917969 -1.925781 C 2.917969 -1.160156 2.898438 -0.691406 2.859375 -0.542969 Z M 2.859375 -0.542969 "/></g></g></g><g fill="#051d40" fill-opacity="0.4"><g transform="translate(54.704842, 55.200804)"><g><path d="M 2.953125 -0.394531 C 2.878906 -0.1875 2.785156 -0.0390625 2.636719 0.0742188 C 2.488281 0.167969 2.28125 0.207031 2.054688 0.1875 C 1.871094 0.148438 1.71875 0.0546875 1.609375 -0.113281 C 1.457031 -0.28125 1.402344 -0.503906 1.441406 -0.785156 C 1.457031 -1.980469 1.496094 -3.195312 1.53125 -4.394531 C 1.570312 -5.570312 1.589844 -6.785156 1.609375 -8.058594 C 1.570312 -8.1875 1.570312 -8.339844 1.625 -8.507812 C 1.664062 -8.65625 1.757812 -8.785156 1.871094 -8.898438 C 1.980469 -8.992188 2.113281 -9.066406 2.28125 -9.105469 C 2.429688 -9.125 2.578125 -9.085938 2.765625 -8.992188 C 3.027344 -8.824219 3.160156 -8.46875 3.160156 -7.910156 L 3.160156 -5.515625 C 3.140625 -4.691406 3.121094 -3.925781 3.121094 -3.234375 C 3.101562 -2.523438 3.085938 -1.925781 3.066406 -1.421875 C 3.027344 -0.898438 2.992188 -0.5625 2.953125 -0.394531 Z M 1.179688 -11.367188 C 1.179688 -11.722656 1.269531 -12.019531 1.476562 -12.28125 C 1.664062 -12.527344 1.925781 -12.65625 2.28125 -12.65625 C 2.523438 -12.65625 2.730469 -12.621094 2.898438 -12.542969 C 3.046875 -12.453125 3.160156 -12.359375 3.253906 -12.246094 C 3.328125 -12.113281 3.363281 -11.984375 3.402344 -11.835938 C 3.421875 -11.683594 3.441406 -11.535156 3.441406 -11.421875 C 3.441406 -11.085938 3.347656 -10.824219 3.179688 -10.621094 C 2.992188 -10.394531 2.65625 -10.265625 2.167969 -10.246094 C 1.832031 -10.246094 1.570312 -10.355469 1.421875 -10.582031 C 1.253906 -10.804688 1.179688 -11.066406 1.179688 -11.367188 Z M 1.179688 -11.367188 "/></g></g></g><g fill="#051d40" fill-opacity="0.4"><g transform="translate(58.480373, 55.200804)"><g><path d="M 2.859375 2.859375 C 2.785156 3.066406 2.691406 3.234375 2.5625 3.363281 C 2.410156 3.476562 2.226562 3.535156 2 3.496094 C 1.8125 3.457031 1.683594 3.363281 1.570312 3.214844 C 1.457031 3.027344 1.402344 2.824219 1.421875 2.5625 L 1.179688 -8.261719 C 1.121094 -8.414062 1.121094 -8.5625 1.160156 -8.710938 C 1.179688 -8.863281 1.234375 -8.992188 1.347656 -9.105469 C 1.421875 -9.199219 1.550781 -9.273438 1.703125 -9.308594 C 1.832031 -9.328125 1.980469 -9.292969 2.167969 -9.21875 C 2.316406 -9.125 2.429688 -8.992188 2.542969 -8.824219 C 2.617188 -8.636719 2.671875 -8.433594 2.691406 -8.1875 L 2.710938 -7.703125 C 3.160156 -8.152344 3.703125 -8.488281 4.335938 -8.75 C 4.9375 -8.972656 5.535156 -9.105469 6.09375 -9.125 C 6.449219 -9.125 6.824219 -9.03125 7.199219 -8.84375 C 7.570312 -8.636719 7.910156 -8.355469 8.207031 -8.019531 C 8.507812 -7.648438 8.75 -7.234375 8.9375 -6.75 C 9.125 -6.246094 9.21875 -5.703125 9.21875 -5.140625 C 9.21875 -4.449219 9.085938 -3.851562 8.824219 -3.328125 C 8.542969 -2.785156 8.1875 -2.335938 7.757812 -2 C 7.308594 -1.625 6.804688 -1.363281 6.246094 -1.195312 C 5.683594 -1.007812 5.105469 -0.917969 4.523438 -0.917969 C 4.28125 -0.917969 4.019531 -0.917969 3.738281 -0.953125 C 3.441406 -0.972656 3.160156 -1.007812 2.878906 -1.085938 C 2.878906 -0.597656 2.898438 -0.132812 2.917969 0.300781 L 2.917969 1.476562 C 2.917969 2.226562 2.898438 2.691406 2.859375 2.859375 Z M 7.664062 -5.179688 C 7.589844 -5.890625 7.402344 -6.488281 7.085938 -6.953125 C 6.75 -7.402344 6.320312 -7.628906 5.8125 -7.664062 C 5.367188 -7.664062 4.878906 -7.554688 4.320312 -7.292969 C 3.757812 -7.03125 3.234375 -6.65625 2.75 -6.207031 C 2.765625 -5.664062 2.785156 -5.066406 2.804688 -4.414062 C 2.804688 -3.738281 2.824219 -3.046875 2.859375 -2.375 C 3.347656 -2.261719 3.890625 -2.242188 4.488281 -2.300781 C 5.066406 -2.335938 5.609375 -2.488281 6.09375 -2.710938 C 6.582031 -2.917969 6.972656 -3.234375 7.292969 -3.644531 C 7.589844 -4.039062 7.703125 -4.542969 7.664062 -5.179688 Z M 7.664062 -5.179688 "/></g></g></g><g fill="#fd8c04" fill-opacity="1"><g transform="translate(37.766278, 54.374386)"><g><path d="M 5.402344 -0.617188 C 5.328125 -0.394531 5.234375 -0.242188 5.085938 -0.132812 C 4.917969 0 4.730469 0.0390625 4.503906 0 C 4.335938 -0.0390625 4.207031 -0.148438 4.09375 -0.355469 C 3.980469 -0.542969 3.925781 -0.746094 3.925781 -0.992188 C 3.90625 -1.8125 3.90625 -2.617188 3.945312 -3.441406 C 3.964844 -4.242188 3.980469 -5.066406 4.019531 -5.890625 C 4.019531 -6.710938 4.039062 -7.535156 4.058594 -8.355469 C 4.058594 -9.160156 4.074219 -9.984375 4.113281 -10.804688 C 3.570312 -10.804688 3.046875 -10.789062 2.5625 -10.75 C 2.316406 -10.710938 2.039062 -10.695312 1.738281 -10.65625 C 1.402344 -10.601562 1.121094 -10.621094 0.898438 -10.710938 C 0.671875 -10.789062 0.503906 -10.917969 0.429688 -11.066406 C 0.335938 -11.199219 0.300781 -11.347656 0.335938 -11.496094 C 0.335938 -11.667969 0.410156 -11.816406 0.5625 -11.945312 C 0.691406 -12.058594 0.898438 -12.113281 1.160156 -12.152344 C 1.550781 -12.191406 2.039062 -12.226562 2.636719 -12.265625 C 3.214844 -12.265625 3.8125 -12.28125 4.449219 -12.28125 C 5.609375 -12.28125 6.523438 -12.28125 7.199219 -12.300781 C 7.851562 -12.300781 8.355469 -12.320312 8.710938 -12.359375 C 8.972656 -12.359375 9.160156 -12.265625 9.273438 -12.097656 C 9.367188 -11.910156 9.402344 -11.757812 9.402344 -11.609375 C 9.402344 -11.441406 9.347656 -11.3125 9.234375 -11.199219 C 9.125 -11.066406 8.957031 -10.992188 8.75 -10.972656 C 8.300781 -10.917969 7.816406 -10.882812 7.253906 -10.863281 C 6.691406 -10.824219 6.132812 -10.804688 5.609375 -10.804688 L 5.609375 -6.5625 C 5.589844 -5.851562 5.570312 -5.160156 5.570312 -4.503906 C 5.550781 -3.832031 5.535156 -3.214844 5.535156 -2.691406 C 5.515625 -2.132812 5.496094 -1.683594 5.476562 -1.328125 C 5.441406 -0.953125 5.421875 -0.710938 5.402344 -0.617188 Z M 5.402344 -0.617188 "/></g></g></g><g fill="#fd8c04" fill-opacity="1"><g transform="translate(46.64481, 54.374386)"><g><path d="M 2.859375 -0.542969 C 2.785156 -0.316406 2.691406 -0.148438 2.5625 -0.0390625 C 2.410156 0.0742188 2.226562 0.132812 2 0.09375 C 1.8125 0.0546875 1.683594 -0.0195312 1.570312 -0.207031 C 1.457031 -0.355469 1.402344 -0.578125 1.421875 -0.839844 L 1.179688 -8.113281 C 1.121094 -8.261719 1.121094 -8.414062 1.160156 -8.5625 C 1.179688 -8.710938 1.234375 -8.84375 1.347656 -8.957031 C 1.421875 -9.046875 1.550781 -9.125 1.703125 -9.160156 C 1.832031 -9.179688 1.980469 -9.140625 2.167969 -9.066406 C 2.316406 -8.972656 2.429688 -8.84375 2.542969 -8.675781 C 2.617188 -8.488281 2.671875 -8.28125 2.691406 -8.039062 L 2.691406 -7.757812 C 2.691406 -7.648438 2.691406 -7.554688 2.710938 -7.460938 C 3.011719 -7.945312 3.363281 -8.320312 3.777344 -8.582031 C 4.1875 -8.804688 4.617188 -8.9375 5.105469 -8.9375 C 5.289062 -8.9375 5.535156 -8.898438 5.796875 -8.863281 C 6.039062 -8.804688 6.28125 -8.695312 6.542969 -8.542969 C 6.769531 -8.355469 6.992188 -8.113281 7.199219 -7.816406 C 7.386719 -7.476562 7.535156 -7.046875 7.628906 -6.523438 C 7.664062 -6.261719 7.628906 -6.039062 7.515625 -5.890625 C 7.386719 -5.722656 7.199219 -5.628906 6.972656 -5.609375 C 6.75 -5.570312 6.582031 -5.644531 6.46875 -5.796875 C 6.335938 -5.925781 6.246094 -6.09375 6.207031 -6.28125 C 6.074219 -6.769531 5.90625 -7.066406 5.683594 -7.214844 C 5.441406 -7.347656 5.199219 -7.421875 4.972656 -7.421875 C 4.824219 -7.421875 4.65625 -7.402344 4.488281 -7.367188 C 4.300781 -7.308594 4.113281 -7.214844 3.925781 -7.105469 C 3.71875 -6.972656 3.535156 -6.804688 3.347656 -6.582031 C 3.140625 -6.355469 2.953125 -6.058594 2.785156 -5.722656 C 2.785156 -5.347656 2.804688 -5.027344 2.839844 -4.75 C 2.839844 -4.449219 2.859375 -4.152344 2.878906 -3.871094 C 2.878906 -3.570312 2.898438 -3.273438 2.917969 -2.972656 L 2.917969 -1.925781 C 2.917969 -1.160156 2.898438 -0.691406 2.859375 -0.542969 Z M 2.859375 -0.542969 "/></g></g></g><g fill="#fd8c04" fill-opacity="1"><g transform="translate(53.878424, 54.374386)"><g><path d="M 2.953125 -0.394531 C 2.878906 -0.1875 2.785156 -0.0390625 2.636719 0.0742188 C 2.488281 0.167969 2.28125 0.207031 2.054688 0.1875 C 1.871094 0.148438 1.71875 0.0546875 1.609375 -0.113281 C 1.457031 -0.28125 1.402344 -0.503906 1.441406 -0.785156 C 1.457031 -1.980469 1.496094 -3.195312 1.53125 -4.394531 C 1.570312 -5.570312 1.589844 -6.785156 1.609375 -8.058594 C 1.570312 -8.1875 1.570312 -8.339844 1.625 -8.507812 C 1.664062 -8.65625 1.757812 -8.785156 1.871094 -8.898438 C 1.980469 -8.992188 2.113281 -9.066406 2.28125 -9.105469 C 2.429688 -9.125 2.578125 -9.085938 2.765625 -8.992188 C 3.027344 -8.824219 3.160156 -8.46875 3.160156 -7.910156 L 3.160156 -5.515625 C 3.140625 -4.691406 3.121094 -3.925781 3.121094 -3.234375 C 3.101562 -2.523438 3.085938 -1.925781 3.066406 -1.421875 C 3.027344 -0.898438 2.992188 -0.5625 2.953125 -0.394531 Z M 1.179688 -11.367188 C 1.179688 -11.722656 1.269531 -12.019531 1.476562 -12.28125 C 1.664062 -12.527344 1.925781 -12.65625 2.28125 -12.65625 C 2.523438 -12.65625 2.730469 -12.621094 2.898438 -12.542969 C 3.046875 -12.453125 3.160156 -12.359375 3.253906 -12.246094 C 3.328125 -12.113281 3.363281 -11.984375 3.402344 -11.835938 C 3.421875 -11.683594 3.441406 -11.535156 3.441406 -11.421875 C 3.441406 -11.085938 3.347656 -10.824219 3.179688 -10.621094 C 2.992188 -10.394531 2.65625 -10.265625 2.167969 -10.246094 C 1.832031 -10.246094 1.570312 -10.355469 1.421875 -10.582031 C 1.253906 -10.804688 1.179688 -11.066406 1.179688 -11.367188 Z M 1.179688 -11.367188 "/></g></g></g><g fill="#fd8c04" fill-opacity="1"><g transform="translate(57.653955, 54.374386)"><g><path d="M 2.859375 2.859375 C 2.785156 3.066406 2.691406 3.234375 2.5625 3.363281 C 2.410156 3.476562 2.226562 3.535156 2 3.496094 C 1.8125 3.457031 1.683594 3.363281 1.570312 3.214844 C 1.457031 3.027344 1.402344 2.824219 1.421875 2.5625 L 1.179688 -8.261719 C 1.121094 -8.414062 1.121094 -8.5625 1.160156 -8.710938 C 1.179688 -8.863281 1.234375 -8.992188 1.347656 -9.105469 C 1.421875 -9.199219 1.550781 -9.273438 1.703125 -9.308594 C 1.832031 -9.328125 1.980469 -9.292969 2.167969 -9.21875 C 2.316406 -9.125 2.429688 -8.992188 2.542969 -8.824219 C 2.617188 -8.636719 2.671875 -8.433594 2.691406 -8.1875 L 2.710938 -7.703125 C 3.160156 -8.152344 3.703125 -8.488281 4.335938 -8.75 C 4.9375 -8.972656 5.535156 -9.105469 6.09375 -9.125 C 6.449219 -9.125 6.824219 -9.03125 7.199219 -8.84375 C 7.570312 -8.636719 7.910156 -8.355469 8.207031 -8.019531 C 8.507812 -7.648438 8.75 -7.234375 8.9375 -6.75 C 9.125 -6.246094 9.21875 -5.703125 9.21875 -5.140625 C 9.21875 -4.449219 9.085938 -3.851562 8.824219 -3.328125 C 8.542969 -2.785156 8.1875 -2.335938 7.757812 -2 C 7.308594 -1.625 6.804688 -1.363281 6.246094 -1.195312 C 5.683594 -1.007812 5.105469 -0.917969 4.523438 -0.917969 C 4.28125 -0.917969 4.019531 -0.917969 3.738281 -0.953125 C 3.441406 -0.972656 3.160156 -1.007812 2.878906 -1.085938 C 2.878906 -0.597656 2.898438 -0.132812 2.917969 0.300781 L 2.917969 1.476562 C 2.917969 2.226562 2.898438 2.691406 2.859375 2.859375 Z M 7.664062 -5.179688 C 7.589844 -5.890625 7.402344 -6.488281 7.085938 -6.953125 C 6.75 -7.402344 6.320312 -7.628906 5.8125 -7.664062 C 5.367188 -7.664062 4.878906 -7.554688 4.320312 -7.292969 C 3.757812 -7.03125 3.234375 -6.65625 2.75 -6.207031 C 2.765625 -5.664062 2.785156 -5.066406 2.804688 -4.414062 C 2.804688 -3.738281 2.824219 -3.046875 2.859375 -2.375 C 3.347656 -2.261719 3.890625 -2.242188 4.488281 -2.300781 C 5.066406 -2.335938 5.609375 -2.488281 6.09375 -2.710938 C 6.582031 -2.917969 6.972656 -3.234375 7.292969 -3.644531 C 7.589844 -4.039062 7.703125 -4.542969 7.664062 -5.179688 Z M 7.664062 -5.179688 "/></g></g></g><g fill="#051d40" fill-opacity="0.4"><g transform="translate(52.373324, 71.904837)"><g><path d="M 7.050781 -0.804688 C 6.953125 -0.511719 6.832031 -0.316406 6.636719 -0.171875 C 6.417969 0 6.171875 0.046875 5.878906 0 C 5.660156 -0.046875 5.488281 -0.195312 5.34375 -0.464844 C 5.195312 -0.707031 5.125 -0.976562 5.125 -1.292969 C 5.097656 -2.367188 5.097656 -3.414062 5.148438 -4.488281 C 5.171875 -5.539062 5.195312 -6.613281 5.246094 -7.683594 C 5.246094 -8.757812 5.269531 -9.832031 5.292969 -10.90625 C 5.292969 -11.953125 5.320312 -13.027344 5.367188 -14.101562 C 4.660156 -14.101562 3.976562 -14.078125 3.34375 -14.027344 C 3.023438 -13.980469 2.660156 -13.957031 2.269531 -13.90625 C 1.828125 -13.832031 1.464844 -13.859375 1.171875 -13.980469 C 0.878906 -14.078125 0.660156 -14.246094 0.5625 -14.441406 C 0.4375 -14.613281 0.390625 -14.808594 0.4375 -15.003906 C 0.4375 -15.222656 0.535156 -15.417969 0.730469 -15.589844 C 0.902344 -15.734375 1.171875 -15.808594 1.511719 -15.859375 C 2.023438 -15.90625 2.660156 -15.957031 3.441406 -16.003906 C 4.195312 -16.003906 4.976562 -16.027344 5.804688 -16.027344 C 7.320312 -16.027344 8.515625 -16.027344 9.394531 -16.054688 C 10.246094 -16.054688 10.90625 -16.078125 11.367188 -16.125 C 11.710938 -16.125 11.953125 -16.003906 12.101562 -15.785156 C 12.222656 -15.542969 12.273438 -15.347656 12.273438 -15.152344 C 12.273438 -14.929688 12.199219 -14.761719 12.050781 -14.613281 C 11.90625 -14.441406 11.6875 -14.34375 11.417969 -14.320312 C 10.832031 -14.246094 10.199219 -14.199219 9.464844 -14.175781 C 8.734375 -14.125 8.003906 -14.101562 7.320312 -14.101562 L 7.320312 -8.5625 C 7.292969 -7.636719 7.269531 -6.734375 7.269531 -5.878906 C 7.246094 -5 7.222656 -4.195312 7.222656 -3.511719 C 7.195312 -2.78125 7.171875 -2.195312 7.148438 -1.730469 C 7.101562 -1.246094 7.074219 -0.925781 7.050781 -0.804688 Z M 7.050781 -0.804688 "/></g></g></g><g fill="#051d40" fill-opacity="0.4"><g transform="translate(63.960806, 71.904837)"><g><path d="M 1 -5.050781 C 1 -5.683594 1.074219 -6.417969 1.269531 -7.222656 C 1.414062 -8.003906 1.730469 -8.734375 2.171875 -9.441406 C 2.609375 -10.125 3.21875 -10.6875 4 -11.175781 C 4.757812 -11.613281 5.734375 -11.855469 6.929688 -11.855469 C 8.003906 -11.855469 8.929688 -11.660156 9.6875 -11.296875 C 10.417969 -10.90625 11.027344 -10.441406 11.515625 -9.882812 C 11.953125 -9.296875 12.296875 -8.636719 12.492188 -7.953125 C 12.664062 -7.222656 12.734375 -6.539062 12.734375 -5.878906 C 12.6875 -5.269531 12.539062 -4.609375 12.246094 -3.902344 C 11.953125 -3.171875 11.515625 -2.488281 10.953125 -1.902344 C 10.367188 -1.269531 9.660156 -0.78125 8.832031 -0.414062 C 7.953125 -0.0234375 6.976562 0.0976562 5.855469 0 C 5.050781 -0.046875 4.34375 -0.242188 3.757812 -0.5625 C 3.148438 -0.855469 2.636719 -1.246094 2.246094 -1.730469 C 1.828125 -2.171875 1.511719 -2.707031 1.316406 -3.292969 C 1.097656 -3.855469 1 -4.441406 1 -5.050781 Z M 6.855469 -9.953125 C 6.195312 -9.953125 5.636719 -9.808594 5.171875 -9.539062 C 4.683594 -9.246094 4.316406 -8.855469 4.027344 -8.394531 C 3.707031 -7.90625 3.488281 -7.34375 3.367188 -6.757812 C 3.21875 -6.125 3.171875 -5.515625 3.21875 -4.878906 C 3.21875 -4.5625 3.292969 -4.246094 3.414062 -3.929688 C 3.511719 -3.585938 3.660156 -3.269531 3.902344 -3 C 4.097656 -2.707031 4.390625 -2.441406 4.734375 -2.246094 C 5.050781 -2.023438 5.441406 -1.902344 5.929688 -1.855469 C 7.34375 -1.78125 8.464844 -2.121094 9.320312 -2.878906 C 10.148438 -3.609375 10.5625 -4.734375 10.5625 -6.195312 C 10.5625 -7.269531 10.222656 -8.171875 9.589844 -8.90625 C 8.90625 -9.589844 8.003906 -9.953125 6.855469 -9.953125 Z M 6.855469 -9.953125 "/></g></g></g><g fill="#051d40" fill-opacity="0.4"><g transform="translate(76.646061, 71.904837)"><g><path d="M 6.953125 -10.953125 C 7.195312 -10.953125 7.488281 -10.929688 7.832031 -10.90625 C 8.148438 -10.855469 8.464844 -10.832031 8.808594 -10.785156 C 8.757812 -10.953125 8.78125 -11.125 8.855469 -11.320312 C 8.90625 -11.464844 8.976562 -11.613281 9.125 -11.734375 C 9.222656 -11.832031 9.367188 -11.90625 9.5625 -11.953125 C 9.734375 -11.953125 9.929688 -11.929688 10.148438 -11.832031 C 10.34375 -11.710938 10.492188 -11.539062 10.636719 -11.320312 C 10.734375 -11.078125 10.808594 -10.808594 10.832031 -10.492188 L 10.882812 -8.976562 C 10.882812 -8.34375 10.90625 -7.636719 10.953125 -6.832031 C 10.980469 -6 11.003906 -5.125 11.050781 -4.195312 C 11.050781 -3.269531 11.078125 -2.316406 11.101562 -1.390625 C 11.101562 -0.414062 11.125 0.464844 11.125 1.34375 C 11.125 1.878906 11.078125 2.367188 11.003906 2.78125 C 10.90625 3.171875 10.734375 3.488281 10.515625 3.757812 C 10.269531 4 9.953125 4.171875 9.5625 4.316406 C 9.148438 4.414062 8.636719 4.488281 8.027344 4.488281 C 7.417969 4.488281 6.808594 4.441406 6.171875 4.34375 C 5.515625 4.246094 4.929688 4.097656 4.414062 3.953125 C 3.878906 3.757812 3.464844 3.5625 3.121094 3.34375 C 2.78125 3.097656 2.609375 2.855469 2.609375 2.585938 C 2.609375 2.292969 2.683594 2.074219 2.855469 1.976562 C 3 1.855469 3.195312 1.804688 3.414062 1.804688 C 3.488281 1.804688 3.5625 1.804688 3.660156 1.828125 C 3.734375 1.828125 3.804688 1.828125 3.902344 1.855469 C 4.246094 1.953125 4.585938 2.023438 4.902344 2.121094 C 5.195312 2.195312 5.488281 2.269531 5.804688 2.34375 C 6.097656 2.390625 6.441406 2.414062 6.78125 2.464844 C 7.125 2.488281 7.515625 2.511719 7.976562 2.511719 C 8.492188 2.511719 8.808594 2.390625 8.953125 2.171875 C 9.074219 1.925781 9.148438 1.585938 9.148438 1.148438 L 9.148438 -0.269531 C 9.125 -0.660156 9.101562 -1.195312 9.101562 -1.878906 C 8.492188 -1.34375 7.808594 -0.953125 7.074219 -0.683594 C 6.292969 -0.390625 5.585938 -0.242188 4.902344 -0.242188 C 4.414062 -0.242188 3.953125 -0.367188 3.464844 -0.632812 C 2.976562 -0.878906 2.539062 -1.21875 2.148438 -1.707031 C 1.757812 -2.148438 1.4375 -2.707031 1.195312 -3.34375 C 0.953125 -3.976562 0.828125 -4.660156 0.828125 -5.441406 C 0.828125 -6.320312 1 -7.125 1.367188 -7.832031 C 1.707031 -8.515625 2.171875 -9.074219 2.757812 -9.5625 C 3.316406 -10.003906 3.976562 -10.367188 4.707031 -10.613281 C 5.441406 -10.832031 6.171875 -10.953125 6.953125 -10.953125 Z M 2.855469 -5.390625 C 2.925781 -4.441406 3.195312 -3.683594 3.636719 -3.097656 C 4.050781 -2.488281 4.585938 -2.171875 5.269531 -2.148438 C 5.804688 -2.121094 6.417969 -2.269531 7.101562 -2.585938 C 7.78125 -2.878906 8.417969 -3.292969 9.050781 -3.832031 C 9.003906 -4.511719 8.976562 -5.269531 8.976562 -6.125 C 8.953125 -6.953125 8.929688 -7.953125 8.90625 -9.074219 C 8.222656 -9.171875 7.539062 -9.199219 6.808594 -9.148438 C 6.074219 -9.050781 5.390625 -8.878906 4.804688 -8.585938 C 4.171875 -8.296875 3.683594 -7.878906 3.316406 -7.367188 C 2.925781 -6.832031 2.78125 -6.171875 2.855469 -5.390625 Z M 2.855469 -5.390625 "/></g></g></g><g fill="#051d40" fill-opacity="0.4"><g transform="translate(87.794436, 71.904837)"><g><path d="M 10.980469 -7.78125 C 10.953125 -7.003906 10.785156 -6.34375 10.464844 -5.757812 C 10.125 -5.171875 9.636719 -4.683594 9.027344 -4.316406 C 8.394531 -3.929688 7.613281 -3.683594 6.710938 -3.5625 C 5.78125 -3.414062 4.707031 -3.441406 3.539062 -3.636719 C 3.757812 -3.246094 4.050781 -2.925781 4.441406 -2.683594 C 4.804688 -2.390625 5.222656 -2.195312 5.683594 -2.050781 C 6.125 -1.902344 6.585938 -1.804688 7.101562 -1.78125 C 7.585938 -1.730469 8.050781 -1.78125 8.539062 -1.878906 C 8.636719 -1.878906 8.78125 -1.902344 8.929688 -1.925781 C 9.050781 -1.925781 9.171875 -1.902344 9.320312 -1.878906 C 9.417969 -1.828125 9.539062 -1.757812 9.636719 -1.660156 C 9.734375 -1.535156 9.785156 -1.390625 9.832031 -1.195312 C 9.882812 -0.902344 9.832031 -0.683594 9.710938 -0.535156 C 9.5625 -0.339844 9.367188 -0.21875 9.148438 -0.121094 C 8.90625 -0.0234375 8.660156 0.0234375 8.417969 0.0742188 C 8.148438 0.0976562 7.90625 0.121094 7.710938 0.121094 C 6.734375 0.121094 5.855469 0 5.074219 -0.242188 C 4.246094 -0.488281 3.5625 -0.828125 2.976562 -1.316406 C 2.367188 -1.78125 1.902344 -2.367188 1.5625 -3.050781 C 1.195312 -3.734375 1 -4.511719 0.953125 -5.417969 C 0.902344 -6.292969 0.976562 -7.125 1.195312 -7.90625 C 1.390625 -8.660156 1.757812 -9.34375 2.246094 -9.929688 C 2.707031 -10.515625 3.316406 -10.980469 4.050781 -11.320312 C 4.78125 -11.660156 5.636719 -11.832031 6.613281 -11.832031 C 7.929688 -11.832031 9.003906 -11.492188 9.832031 -10.808594 C 10.613281 -10.125 11.003906 -9.101562 10.980469 -7.78125 Z M 6.683594 -10.050781 C 6.292969 -10.050781 5.878906 -9.976562 5.441406 -9.882812 C 4.976562 -9.757812 4.5625 -9.539062 4.222656 -9.199219 C 3.855469 -8.855469 3.5625 -8.367188 3.367188 -7.757812 C 3.121094 -7.125 3.050781 -6.292969 3.148438 -5.269531 C 3.832031 -5.222656 4.539062 -5.195312 5.269531 -5.246094 C 5.953125 -5.246094 6.585938 -5.367188 7.171875 -5.585938 C 7.710938 -5.78125 8.171875 -6.074219 8.515625 -6.515625 C 8.855469 -6.929688 9.003906 -7.515625 8.976562 -8.296875 C 8.976562 -8.464844 8.929688 -8.660156 8.855469 -8.878906 C 8.757812 -9.074219 8.636719 -9.246094 8.464844 -9.441406 C 8.269531 -9.613281 8.050781 -9.757812 7.78125 -9.882812 C 7.488281 -9.976562 7.125 -10.050781 6.683594 -10.050781 Z M 6.683594 -10.050781 "/></g></g></g><g fill="#051d40" fill-opacity="0.4"><g transform="translate(98.454912, 71.904837)"><g><path d="M 5.585938 -5.5625 C 5.585938 -4.832031 5.636719 -4.246094 5.734375 -3.804688 C 5.78125 -3.316406 5.929688 -2.953125 6.148438 -2.683594 C 6.34375 -2.390625 6.636719 -2.171875 7.027344 -2.050781 C 7.417969 -1.902344 7.929688 -1.78125 8.613281 -1.730469 C 8.734375 -1.78125 8.855469 -1.828125 8.953125 -1.828125 L 9.199219 -1.828125 C 9.441406 -1.828125 9.660156 -1.757812 9.832031 -1.585938 C 9.976562 -1.390625 10.074219 -1.171875 10.074219 -0.925781 C 10.074219 -0.632812 9.953125 -0.414062 9.660156 -0.242188 C 9.367188 -0.046875 9.050781 0.0234375 8.757812 0.0234375 C 7.683594 0.0234375 6.808594 -0.0976562 6.148438 -0.339844 C 5.464844 -0.585938 4.953125 -0.925781 4.585938 -1.367188 C 4.195312 -1.804688 3.953125 -2.316406 3.832031 -2.953125 C 3.683594 -3.539062 3.585938 -4.222656 3.585938 -4.953125 C 3.5625 -5.367188 3.5625 -6 3.5625 -6.855469 C 3.539062 -7.683594 3.511719 -8.613281 3.511719 -9.636719 C 3.34375 -9.589844 3.195312 -9.5625 3.050781 -9.5625 C 2.878906 -9.539062 2.707031 -9.539062 2.539062 -9.539062 C 2.292969 -9.492188 2.074219 -9.492188 1.878906 -9.492188 C 1.632812 -9.464844 1.390625 -9.492188 1.148438 -9.5625 C 0.855469 -9.636719 0.683594 -9.785156 0.585938 -10.003906 C 0.464844 -10.199219 0.414062 -10.394531 0.4375 -10.589844 C 0.464844 -11.078125 0.828125 -11.367188 1.511719 -11.464844 C 1.78125 -11.492188 2.097656 -11.515625 2.441406 -11.5625 C 2.78125 -11.5625 3.121094 -11.589844 3.511719 -11.613281 C 3.511719 -12.246094 3.511719 -12.882812 3.539062 -13.492188 C 3.539062 -14.078125 3.539062 -14.613281 3.5625 -15.101562 C 3.5625 -15.46875 3.660156 -15.734375 3.902344 -15.882812 C 4.097656 -16.027344 4.316406 -16.101562 4.5625 -16.101562 C 4.878906 -16.101562 5.171875 -16.003906 5.417969 -15.808594 C 5.636719 -15.613281 5.734375 -15.347656 5.707031 -15.003906 C 5.660156 -14.613281 5.636719 -14.125 5.636719 -13.539062 C 5.613281 -12.953125 5.585938 -12.320312 5.585938 -11.636719 L 7.101562 -11.636719 C 7.441406 -11.636719 7.710938 -11.636719 7.929688 -11.660156 C 8.125 -11.660156 8.296875 -11.660156 8.441406 -11.6875 C 8.585938 -11.6875 8.78125 -11.710938 9.027344 -11.734375 C 9.199219 -11.734375 9.34375 -11.6875 9.464844 -11.636719 C 9.5625 -11.5625 9.660156 -11.492188 9.757812 -11.394531 C 9.808594 -11.296875 9.855469 -11.175781 9.90625 -11.078125 C 9.90625 -10.929688 9.929688 -10.832031 9.929688 -10.734375 C 9.929688 -10.515625 9.855469 -10.34375 9.710938 -10.199219 C 9.539062 -10.027344 9.320312 -9.90625 9.050781 -9.855469 C 8.710938 -9.808594 8.441406 -9.785156 8.246094 -9.785156 C 8.003906 -9.734375 7.78125 -9.734375 7.5625 -9.734375 C 7.320312 -9.710938 7.074219 -9.710938 6.808594 -9.710938 C 6.515625 -9.6875 6.171875 -9.6875 5.757812 -9.6875 L 5.5625 -9.6875 C 5.539062 -8.808594 5.539062 -8.027344 5.5625 -7.292969 C 5.5625 -6.5625 5.5625 -5.976562 5.585938 -5.5625 Z M 5.585938 -5.5625 "/></g></g></g><g fill="#051d40" fill-opacity="0.4"><g transform="translate(107.773667, 71.904837)"><g><path d="M 3.734375 -0.707031 C 3.636719 -0.414062 3.511719 -0.195312 3.34375 -0.046875 C 3.148438 0.0976562 2.902344 0.171875 2.609375 0.121094 C 2.367188 0.0742188 2.195312 -0.0234375 2.050781 -0.269531 C 1.902344 -0.464844 1.828125 -0.757812 1.855469 -1.097656 L 1.535156 -15.46875 C 1.464844 -15.664062 1.464844 -15.859375 1.511719 -16.054688 C 1.535156 -16.25 1.609375 -16.417969 1.757812 -16.566406 C 1.855469 -16.6875 2.023438 -16.785156 2.21875 -16.835938 C 2.390625 -16.859375 2.585938 -16.808594 2.832031 -16.710938 C 3.023438 -16.589844 3.171875 -16.417969 3.316406 -16.199219 C 3.414062 -15.957031 3.488281 -15.6875 3.511719 -15.371094 L 3.5625 -13.859375 C 3.5625 -13.46875 3.585938 -13.027344 3.609375 -12.539062 C 3.609375 -12.027344 3.609375 -11.492188 3.660156 -10.929688 C 4.195312 -11.125 4.804688 -11.296875 5.488281 -11.464844 C 6.171875 -11.613281 6.929688 -11.6875 7.78125 -11.6875 C 7.976562 -11.660156 8.222656 -11.636719 8.492188 -11.636719 C 8.734375 -11.613281 8.976562 -11.539062 9.246094 -11.417969 C 9.492188 -11.273438 9.710938 -11.078125 9.953125 -10.785156 C 10.171875 -10.492188 10.367188 -10.074219 10.5625 -9.539062 C 10.710938 -8.976562 10.855469 -8.269531 10.980469 -7.441406 C 11.078125 -6.585938 11.125 -5.539062 11.125 -4.292969 C 11.125 -3.804688 11.101562 -3.292969 11.078125 -2.78125 C 11.027344 -2.246094 11.003906 -1.683594 10.980469 -1.097656 C 10.929688 -0.757812 10.855469 -0.488281 10.710938 -0.269531 C 10.5625 -0.0234375 10.296875 0.046875 9.929688 0.0234375 C 9.589844 0 9.367188 -0.0976562 9.222656 -0.316406 C 9.074219 -0.511719 9.003906 -0.757812 9.027344 -1.097656 C 9.027344 -1.414062 9.050781 -1.828125 9.074219 -2.316406 L 9.074219 -5.855469 C 9.050781 -6.441406 9.027344 -6.929688 9.003906 -7.320312 C 8.953125 -7.90625 8.878906 -8.367188 8.78125 -8.710938 C 8.660156 -9.027344 8.539062 -9.269531 8.394531 -9.441406 C 8.246094 -9.589844 8.074219 -9.660156 7.929688 -9.710938 C 7.757812 -9.734375 7.613281 -9.757812 7.488281 -9.757812 C 6.710938 -9.757812 6 -9.660156 5.367188 -9.492188 C 4.707031 -9.296875 4.148438 -9.125 3.707031 -8.953125 L 3.78125 -5.441406 C 3.78125 -4.269531 3.804688 -3.292969 3.804688 -2.511719 C 3.804688 -1.511719 3.78125 -0.902344 3.734375 -0.707031 Z M 3.734375 -0.707031 "/></g></g></g><g fill="#051d40" fill-opacity="0.4"><g transform="translate(118.922041, 71.904837)"><g><path d="M 10.980469 -7.78125 C 10.953125 -7.003906 10.785156 -6.34375 10.464844 -5.757812 C 10.125 -5.171875 9.636719 -4.683594 9.027344 -4.316406 C 8.394531 -3.929688 7.613281 -3.683594 6.710938 -3.5625 C 5.78125 -3.414062 4.707031 -3.441406 3.539062 -3.636719 C 3.757812 -3.246094 4.050781 -2.925781 4.441406 -2.683594 C 4.804688 -2.390625 5.222656 -2.195312 5.683594 -2.050781 C 6.125 -1.902344 6.585938 -1.804688 7.101562 -1.78125 C 7.585938 -1.730469 8.050781 -1.78125 8.539062 -1.878906 C 8.636719 -1.878906 8.78125 -1.902344 8.929688 -1.925781 C 9.050781 -1.925781 9.171875 -1.902344 9.320312 -1.878906 C 9.417969 -1.828125 9.539062 -1.757812 9.636719 -1.660156 C 9.734375 -1.535156 9.785156 -1.390625 9.832031 -1.195312 C 9.882812 -0.902344 9.832031 -0.683594 9.710938 -0.535156 C 9.5625 -0.339844 9.367188 -0.21875 9.148438 -0.121094 C 8.90625 -0.0234375 8.660156 0.0234375 8.417969 0.0742188 C 8.148438 0.0976562 7.90625 0.121094 7.710938 0.121094 C 6.734375 0.121094 5.855469 0 5.074219 -0.242188 C 4.246094 -0.488281 3.5625 -0.828125 2.976562 -1.316406 C 2.367188 -1.78125 1.902344 -2.367188 1.5625 -3.050781 C 1.195312 -3.734375 1 -4.511719 0.953125 -5.417969 C 0.902344 -6.292969 0.976562 -7.125 1.195312 -7.90625 C 1.390625 -8.660156 1.757812 -9.34375 2.246094 -9.929688 C 2.707031 -10.515625 3.316406 -10.980469 4.050781 -11.320312 C 4.78125 -11.660156 5.636719 -11.832031 6.613281 -11.832031 C 7.929688 -11.832031 9.003906 -11.492188 9.832031 -10.808594 C 10.613281 -10.125 11.003906 -9.101562 10.980469 -7.78125 Z M 6.683594 -10.050781 C 6.292969 -10.050781 5.878906 -9.976562 5.441406 -9.882812 C 4.976562 -9.757812 4.5625 -9.539062 4.222656 -9.199219 C 3.855469 -8.855469 3.5625 -8.367188 3.367188 -7.757812 C 3.121094 -7.125 3.050781 -6.292969 3.148438 -5.269531 C 3.832031 -5.222656 4.539062 -5.195312 5.269531 -5.246094 C 5.953125 -5.246094 6.585938 -5.367188 7.171875 -5.585938 C 7.710938 -5.78125 8.171875 -6.074219 8.515625 -6.515625 C 8.855469 -6.929688 9.003906 -7.515625 8.976562 -8.296875 C 8.976562 -8.464844 8.929688 -8.660156 8.855469 -8.878906 C 8.757812 -9.074219 8.636719 -9.246094 8.464844 -9.441406 C 8.269531 -9.613281 8.050781 -9.757812 7.78125 -9.882812 C 7.488281 -9.976562 7.125 -10.050781 6.683594 -10.050781 Z M 6.683594 -10.050781 "/></g></g></g><g fill="#051d40" fill-opacity="0.4"><g transform="translate(129.582522, 71.904837)"><g><path d="M 3.734375 -0.707031 C 3.636719 -0.414062 3.511719 -0.195312 3.34375 -0.046875 C 3.148438 0.0976562 2.902344 0.171875 2.609375 0.121094 C 2.367188 0.0742188 2.195312 -0.0234375 2.050781 -0.269531 C 1.902344 -0.464844 1.828125 -0.757812 1.855469 -1.097656 L 1.535156 -10.589844 C 1.464844 -10.785156 1.464844 -10.980469 1.511719 -11.175781 C 1.535156 -11.367188 1.609375 -11.539062 1.757812 -11.6875 C 1.855469 -11.808594 2.023438 -11.90625 2.21875 -11.953125 C 2.390625 -11.980469 2.585938 -11.929688 2.832031 -11.832031 C 3.023438 -11.710938 3.171875 -11.539062 3.316406 -11.320312 C 3.414062 -11.078125 3.488281 -10.808594 3.511719 -10.492188 L 3.511719 -10.125 C 3.511719 -9.976562 3.511719 -9.855469 3.539062 -9.734375 C 3.929688 -10.367188 4.390625 -10.855469 4.929688 -11.199219 C 5.464844 -11.492188 6.027344 -11.660156 6.660156 -11.660156 C 6.90625 -11.660156 7.222656 -11.613281 7.5625 -11.5625 C 7.878906 -11.492188 8.199219 -11.34375 8.539062 -11.148438 C 8.832031 -10.90625 9.125 -10.589844 9.394531 -10.199219 C 9.636719 -9.757812 9.832031 -9.199219 9.953125 -8.515625 C 10.003906 -8.171875 9.953125 -7.878906 9.808594 -7.683594 C 9.636719 -7.464844 9.394531 -7.34375 9.101562 -7.320312 C 8.808594 -7.269531 8.585938 -7.367188 8.441406 -7.5625 C 8.269531 -7.734375 8.148438 -7.953125 8.101562 -8.199219 C 7.929688 -8.832031 7.710938 -9.222656 7.417969 -9.417969 C 7.101562 -9.589844 6.78125 -9.6875 6.488281 -9.6875 C 6.292969 -9.6875 6.074219 -9.660156 5.855469 -9.613281 C 5.613281 -9.539062 5.367188 -9.417969 5.125 -9.269531 C 4.855469 -9.101562 4.609375 -8.878906 4.367188 -8.585938 C 4.097656 -8.296875 3.855469 -7.90625 3.636719 -7.464844 C 3.636719 -6.976562 3.660156 -6.5625 3.707031 -6.195312 C 3.707031 -5.804688 3.734375 -5.417969 3.757812 -5.050781 C 3.757812 -4.660156 3.78125 -4.269531 3.804688 -3.878906 L 3.804688 -2.511719 C 3.804688 -1.511719 3.78125 -0.902344 3.734375 -0.707031 Z M 3.734375 -0.707031 "/></g></g></g><g fill="#fd8c04" fill-opacity="1"><g transform="translate(51.295094, 70.826607)"><g><path d="M 7.050781 -0.804688 C 6.953125 -0.511719 6.832031 -0.316406 6.636719 -0.171875 C 6.417969 0 6.171875 0.046875 5.878906 0 C 5.660156 -0.046875 5.488281 -0.195312 5.34375 -0.464844 C 5.195312 -0.707031 5.125 -0.976562 5.125 -1.292969 C 5.097656 -2.367188 5.097656 -3.414062 5.148438 -4.488281 C 5.171875 -5.539062 5.195312 -6.613281 5.246094 -7.683594 C 5.246094 -8.757812 5.269531 -9.832031 5.292969 -10.90625 C 5.292969 -11.953125 5.320312 -13.027344 5.367188 -14.101562 C 4.660156 -14.101562 3.976562 -14.078125 3.34375 -14.027344 C 3.023438 -13.980469 2.660156 -13.957031 2.269531 -13.90625 C 1.828125 -13.832031 1.464844 -13.859375 1.171875 -13.980469 C 0.878906 -14.078125 0.660156 -14.246094 0.5625 -14.441406 C 0.4375 -14.613281 0.390625 -14.808594 0.4375 -15.003906 C 0.4375 -15.222656 0.535156 -15.417969 0.730469 -15.589844 C 0.902344 -15.734375 1.171875 -15.808594 1.511719 -15.859375 C 2.023438 -15.90625 2.660156 -15.957031 3.441406 -16.003906 C 4.195312 -16.003906 4.976562 -16.027344 5.804688 -16.027344 C 7.320312 -16.027344 8.515625 -16.027344 9.394531 -16.054688 C 10.246094 -16.054688 10.90625 -16.078125 11.367188 -16.125 C 11.710938 -16.125 11.953125 -16.003906 12.101562 -15.785156 C 12.222656 -15.542969 12.273438 -15.347656 12.273438 -15.152344 C 12.273438 -14.929688 12.199219 -14.761719 12.050781 -14.613281 C 11.90625 -14.441406 11.6875 -14.34375 11.417969 -14.320312 C 10.832031 -14.246094 10.199219 -14.199219 9.464844 -14.175781 C 8.734375 -14.125 8.003906 -14.101562 7.320312 -14.101562 L 7.320312 -8.5625 C 7.292969 -7.636719 7.269531 -6.734375 7.269531 -5.878906 C 7.246094 -5 7.222656 -4.195312 7.222656 -3.511719 C 7.195312 -2.78125 7.171875 -2.195312 7.148438 -1.730469 C 7.101562 -1.246094 7.074219 -0.925781 7.050781 -0.804688 Z M 7.050781 -0.804688 "/></g></g></g><g fill="#fd8c04" fill-opacity="1"><g transform="translate(62.882576, 70.826607)"><g><path d="M 1 -5.050781 C 1 -5.683594 1.074219 -6.417969 1.269531 -7.222656 C 1.414062 -8.003906 1.730469 -8.734375 2.171875 -9.441406 C 2.609375 -10.125 3.21875 -10.6875 4 -11.175781 C 4.757812 -11.613281 5.734375 -11.855469 6.929688 -11.855469 C 8.003906 -11.855469 8.929688 -11.660156 9.6875 -11.296875 C 10.417969 -10.90625 11.027344 -10.441406 11.515625 -9.882812 C 11.953125 -9.296875 12.296875 -8.636719 12.492188 -7.953125 C 12.664062 -7.222656 12.734375 -6.539062 12.734375 -5.878906 C 12.6875 -5.269531 12.539062 -4.609375 12.246094 -3.902344 C 11.953125 -3.171875 11.515625 -2.488281 10.953125 -1.902344 C 10.367188 -1.269531 9.660156 -0.78125 8.832031 -0.414062 C 7.953125 -0.0234375 6.976562 0.0976562 5.855469 0 C 5.050781 -0.046875 4.34375 -0.242188 3.757812 -0.5625 C 3.148438 -0.855469 2.636719 -1.246094 2.246094 -1.730469 C 1.828125 -2.171875 1.511719 -2.707031 1.316406 -3.292969 C 1.097656 -3.855469 1 -4.441406 1 -5.050781 Z M 6.855469 -9.953125 C 6.195312 -9.953125 5.636719 -9.808594 5.171875 -9.539062 C 4.683594 -9.246094 4.316406 -8.855469 4.027344 -8.394531 C 3.707031 -7.90625 3.488281 -7.34375 3.367188 -6.757812 C 3.21875 -6.125 3.171875 -5.515625 3.21875 -4.878906 C 3.21875 -4.5625 3.292969 -4.246094 3.414062 -3.929688 C 3.511719 -3.585938 3.660156 -3.269531 3.902344 -3 C 4.097656 -2.707031 4.390625 -2.441406 4.734375 -2.246094 C 5.050781 -2.023438 5.441406 -1.902344 5.929688 -1.855469 C 7.34375 -1.78125 8.464844 -2.121094 9.320312 -2.878906 C 10.148438 -3.609375 10.5625 -4.734375 10.5625 -6.195312 C 10.5625 -7.269531 10.222656 -8.171875 9.589844 -8.90625 C 8.90625 -9.589844 8.003906 -9.953125 6.855469 -9.953125 Z M 6.855469 -9.953125 "/></g></g></g><g fill="#fd8c04" fill-opacity="1"><g transform="translate(75.567831, 70.826607)"><g><path d="M 6.953125 -10.953125 C 7.195312 -10.953125 7.488281 -10.929688 7.832031 -10.90625 C 8.148438 -10.855469 8.464844 -10.832031 8.808594 -10.785156 C 8.757812 -10.953125 8.78125 -11.125 8.855469 -11.320312 C 8.90625 -11.464844 8.976562 -11.613281 9.125 -11.734375 C 9.222656 -11.832031 9.367188 -11.90625 9.5625 -11.953125 C 9.734375 -11.953125 9.929688 -11.929688 10.148438 -11.832031 C 10.34375 -11.710938 10.492188 -11.539062 10.636719 -11.320312 C 10.734375 -11.078125 10.808594 -10.808594 10.832031 -10.492188 L 10.882812 -8.976562 C 10.882812 -8.34375 10.90625 -7.636719 10.953125 -6.832031 C 10.980469 -6 11.003906 -5.125 11.050781 -4.195312 C 11.050781 -3.269531 11.078125 -2.316406 11.101562 -1.390625 C 11.101562 -0.414062 11.125 0.464844 11.125 1.34375 C 11.125 1.878906 11.078125 2.367188 11.003906 2.78125 C 10.90625 3.171875 10.734375 3.488281 10.515625 3.757812 C 10.269531 4 9.953125 4.171875 9.5625 4.316406 C 9.148438 4.414062 8.636719 4.488281 8.027344 4.488281 C 7.417969 4.488281 6.808594 4.441406 6.171875 4.34375 C 5.515625 4.246094 4.929688 4.097656 4.414062 3.953125 C 3.878906 3.757812 3.464844 3.5625 3.121094 3.34375 C 2.78125 3.097656 2.609375 2.855469 2.609375 2.585938 C 2.609375 2.292969 2.683594 2.074219 2.855469 1.976562 C 3 1.855469 3.195312 1.804688 3.414062 1.804688 C 3.488281 1.804688 3.5625 1.804688 3.660156 1.828125 C 3.734375 1.828125 3.804688 1.828125 3.902344 1.855469 C 4.246094 1.953125 4.585938 2.023438 4.902344 2.121094 C 5.195312 2.195312 5.488281 2.269531 5.804688 2.34375 C 6.097656 2.390625 6.441406 2.414062 6.78125 2.464844 C 7.125 2.488281 7.515625 2.511719 7.976562 2.511719 C 8.492188 2.511719 8.808594 2.390625 8.953125 2.171875 C 9.074219 1.925781 9.148438 1.585938 9.148438 1.148438 L 9.148438 -0.269531 C 9.125 -0.660156 9.101562 -1.195312 9.101562 -1.878906 C 8.492188 -1.34375 7.808594 -0.953125 7.074219 -0.683594 C 6.292969 -0.390625 5.585938 -0.242188 4.902344 -0.242188 C 4.414062 -0.242188 3.953125 -0.367188 3.464844 -0.632812 C 2.976562 -0.878906 2.539062 -1.21875 2.148438 -1.707031 C 1.757812 -2.148438 1.4375 -2.707031 1.195312 -3.34375 C 0.953125 -3.976562 0.828125 -4.660156 0.828125 -5.441406 C 0.828125 -6.320312 1 -7.125 1.367188 -7.832031 C 1.707031 -8.515625 2.171875 -9.074219 2.757812 -9.5625 C 3.316406 -10.003906 3.976562 -10.367188 4.707031 -10.613281 C 5.441406 -10.832031 6.171875 -10.953125 6.953125 -10.953125 Z M 2.855469 -5.390625 C 2.925781 -4.441406 3.195312 -3.683594 3.636719 -3.097656 C 4.050781 -2.488281 4.585938 -2.171875 5.269531 -2.148438 C 5.804688 -2.121094 6.417969 -2.269531 7.101562 -2.585938 C 7.78125 -2.878906 8.417969 -3.292969 9.050781 -3.832031 C 9.003906 -4.511719 8.976562 -5.269531 8.976562 -6.125 C 8.953125 -6.953125 8.929688 -7.953125 8.90625 -9.074219 C 8.222656 -9.171875 7.539062 -9.199219 6.808594 -9.148438 C 6.074219 -9.050781 5.390625 -8.878906 4.804688 -8.585938 C 4.171875 -8.296875 3.683594 -7.878906 3.316406 -7.367188 C 2.925781 -6.832031 2.78125 -6.171875 2.855469 -5.390625 Z M 2.855469 -5.390625 "/></g></g></g><g fill="#fd8c04" fill-opacity="1"><g transform="translate(86.716206, 70.826607)"><g><path d="M 10.980469 -7.78125 C 10.953125 -7.003906 10.785156 -6.34375 10.464844 -5.757812 C 10.125 -5.171875 9.636719 -4.683594 9.027344 -4.316406 C 8.394531 -3.929688 7.613281 -3.683594 6.710938 -3.5625 C 5.78125 -3.414062 4.707031 -3.441406 3.539062 -3.636719 C 3.757812 -3.246094 4.050781 -2.925781 4.441406 -2.683594 C 4.804688 -2.390625 5.222656 -2.195312 5.683594 -2.050781 C 6.125 -1.902344 6.585938 -1.804688 7.101562 -1.78125 C 7.585938 -1.730469 8.050781 -1.78125 8.539062 -1.878906 C 8.636719 -1.878906 8.78125 -1.902344 8.929688 -1.925781 C 9.050781 -1.925781 9.171875 -1.902344 9.320312 -1.878906 C 9.417969 -1.828125 9.539062 -1.757812 9.636719 -1.660156 C 9.734375 -1.535156 9.785156 -1.390625 9.832031 -1.195312 C 9.882812 -0.902344 9.832031 -0.683594 9.710938 -0.535156 C 9.5625 -0.339844 9.367188 -0.21875 9.148438 -0.121094 C 8.90625 -0.0234375 8.660156 0.0234375 8.417969 0.0742188 C 8.148438 0.0976562 7.90625 0.121094 7.710938 0.121094 C 6.734375 0.121094 5.855469 0 5.074219 -0.242188 C 4.246094 -0.488281 3.5625 -0.828125 2.976562 -1.316406 C 2.367188 -1.78125 1.902344 -2.367188 1.5625 -3.050781 C 1.195312 -3.734375 1 -4.511719 0.953125 -5.417969 C 0.902344 -6.292969 0.976562 -7.125 1.195312 -7.90625 C 1.390625 -8.660156 1.757812 -9.34375 2.246094 -9.929688 C 2.707031 -10.515625 3.316406 -10.980469 4.050781 -11.320312 C 4.78125 -11.660156 5.636719 -11.832031 6.613281 -11.832031 C 7.929688 -11.832031 9.003906 -11.492188 9.832031 -10.808594 C 10.613281 -10.125 11.003906 -9.101562 10.980469 -7.78125 Z M 6.683594 -10.050781 C 6.292969 -10.050781 5.878906 -9.976562 5.441406 -9.882812 C 4.976562 -9.757812 4.5625 -9.539062 4.222656 -9.199219 C 3.855469 -8.855469 3.5625 -8.367188 3.367188 -7.757812 C 3.121094 -7.125 3.050781 -6.292969 3.148438 -5.269531 C 3.832031 -5.222656 4.539062 -5.195312 5.269531 -5.246094 C 5.953125 -5.246094 6.585938 -5.367188 7.171875 -5.585938 C 7.710938 -5.78125 8.171875 -6.074219 8.515625 -6.515625 C 8.855469 -6.929688 9.003906 -7.515625 8.976562 -8.296875 C 8.976562 -8.464844 8.929688 -8.660156 8.855469 -8.878906 C 8.757812 -9.074219 8.636719 -9.246094 8.464844 -9.441406 C 8.269531 -9.613281 8.050781 -9.757812 7.78125 -9.882812 C 7.488281 -9.976562 7.125 -10.050781 6.683594 -10.050781 Z M 6.683594 -10.050781 "/></g></g></g><g fill="#fd8c04" fill-opacity="1"><g transform="translate(97.376682, 70.826607)"><g><path d="M 5.585938 -5.5625 C 5.585938 -4.832031 5.636719 -4.246094 5.734375 -3.804688 C 5.78125 -3.316406 5.929688 -2.953125 6.148438 -2.683594 C 6.34375 -2.390625 6.636719 -2.171875 7.027344 -2.050781 C 7.417969 -1.902344 7.929688 -1.78125 8.613281 -1.730469 C 8.734375 -1.78125 8.855469 -1.828125 8.953125 -1.828125 L 9.199219 -1.828125 C 9.441406 -1.828125 9.660156 -1.757812 9.832031 -1.585938 C 9.976562 -1.390625 10.074219 -1.171875 10.074219 -0.925781 C 10.074219 -0.632812 9.953125 -0.414062 9.660156 -0.242188 C 9.367188 -0.046875 9.050781 0.0234375 8.757812 0.0234375 C 7.683594 0.0234375 6.808594 -0.0976562 6.148438 -0.339844 C 5.464844 -0.585938 4.953125 -0.925781 4.585938 -1.367188 C 4.195312 -1.804688 3.953125 -2.316406 3.832031 -2.953125 C 3.683594 -3.539062 3.585938 -4.222656 3.585938 -4.953125 C 3.5625 -5.367188 3.5625 -6 3.5625 -6.855469 C 3.539062 -7.683594 3.511719 -8.613281 3.511719 -9.636719 C 3.34375 -9.589844 3.195312 -9.5625 3.050781 -9.5625 C 2.878906 -9.539062 2.707031 -9.539062 2.539062 -9.539062 C 2.292969 -9.492188 2.074219 -9.492188 1.878906 -9.492188 C 1.632812 -9.464844 1.390625 -9.492188 1.148438 -9.5625 C 0.855469 -9.636719 0.683594 -9.785156 0.585938 -10.003906 C 0.464844 -10.199219 0.414062 -10.394531 0.4375 -10.589844 C 0.464844 -11.078125 0.828125 -11.367188 1.511719 -11.464844 C 1.78125 -11.492188 2.097656 -11.515625 2.441406 -11.5625 C 2.78125 -11.5625 3.121094 -11.589844 3.511719 -11.613281 C 3.511719 -12.246094 3.511719 -12.882812 3.539062 -13.492188 C 3.539062 -14.078125 3.539062 -14.613281 3.5625 -15.101562 C 3.5625 -15.46875 3.660156 -15.734375 3.902344 -15.882812 C 4.097656 -16.027344 4.316406 -16.101562 4.5625 -16.101562 C 4.878906 -16.101562 5.171875 -16.003906 5.417969 -15.808594 C 5.636719 -15.613281 5.734375 -15.347656 5.707031 -15.003906 C 5.660156 -14.613281 5.636719 -14.125 5.636719 -13.539062 C 5.613281 -12.953125 5.585938 -12.320312 5.585938 -11.636719 L 7.101562 -11.636719 C 7.441406 -11.636719 7.710938 -11.636719 7.929688 -11.660156 C 8.125 -11.660156 8.296875 -11.660156 8.441406 -11.6875 C 8.585938 -11.6875 8.78125 -11.710938 9.027344 -11.734375 C 9.199219 -11.734375 9.34375 -11.6875 9.464844 -11.636719 C 9.5625 -11.5625 9.660156 -11.492188 9.757812 -11.394531 C 9.808594 -11.296875 9.855469 -11.175781 9.90625 -11.078125 C 9.90625 -10.929688 9.929688 -10.832031 9.929688 -10.734375 C 9.929688 -10.515625 9.855469 -10.34375 9.710938 -10.199219 C 9.539062 -10.027344 9.320312 -9.90625 9.050781 -9.855469 C 8.710938 -9.808594 8.441406 -9.785156 8.246094 -9.785156 C 8.003906 -9.734375 7.78125 -9.734375 7.5625 -9.734375 C 7.320312 -9.710938 7.074219 -9.710938 6.808594 -9.710938 C 6.515625 -9.6875 6.171875 -9.6875 5.757812 -9.6875 L 5.5625 -9.6875 C 5.539062 -8.808594 5.539062 -8.027344 5.5625 -7.292969 C 5.5625 -6.5625 5.5625 -5.976562 5.585938 -5.5625 Z M 5.585938 -5.5625 "/></g></g></g><g fill="#fd8c04" fill-opacity="1"><g transform="translate(106.695437, 70.826607)"><g><path d="M 3.734375 -0.707031 C 3.636719 -0.414062 3.511719 -0.195312 3.34375 -0.046875 C 3.148438 0.0976562 2.902344 0.171875 2.609375 0.121094 C 2.367188 0.0742188 2.195312 -0.0234375 2.050781 -0.269531 C 1.902344 -0.464844 1.828125 -0.757812 1.855469 -1.097656 L 1.535156 -15.46875 C 1.464844 -15.664062 1.464844 -15.859375 1.511719 -16.054688 C 1.535156 -16.25 1.609375 -16.417969 1.757812 -16.566406 C 1.855469 -16.6875 2.023438 -16.785156 2.21875 -16.835938 C 2.390625 -16.859375 2.585938 -16.808594 2.832031 -16.710938 C 3.023438 -16.589844 3.171875 -16.417969 3.316406 -16.199219 C 3.414062 -15.957031 3.488281 -15.6875 3.511719 -15.371094 L 3.5625 -13.859375 C 3.5625 -13.46875 3.585938 -13.027344 3.609375 -12.539062 C 3.609375 -12.027344 3.609375 -11.492188 3.660156 -10.929688 C 4.195312 -11.125 4.804688 -11.296875 5.488281 -11.464844 C 6.171875 -11.613281 6.929688 -11.6875 7.78125 -11.6875 C 7.976562 -11.660156 8.222656 -11.636719 8.492188 -11.636719 C 8.734375 -11.613281 8.976562 -11.539062 9.246094 -11.417969 C 9.492188 -11.273438 9.710938 -11.078125 9.953125 -10.785156 C 10.171875 -10.492188 10.367188 -10.074219 10.5625 -9.539062 C 10.710938 -8.976562 10.855469 -8.269531 10.980469 -7.441406 C 11.078125 -6.585938 11.125 -5.539062 11.125 -4.292969 C 11.125 -3.804688 11.101562 -3.292969 11.078125 -2.78125 C 11.027344 -2.246094 11.003906 -1.683594 10.980469 -1.097656 C 10.929688 -0.757812 10.855469 -0.488281 10.710938 -0.269531 C 10.5625 -0.0234375 10.296875 0.046875 9.929688 0.0234375 C 9.589844 0 9.367188 -0.0976562 9.222656 -0.316406 C 9.074219 -0.511719 9.003906 -0.757812 9.027344 -1.097656 C 9.027344 -1.414062 9.050781 -1.828125 9.074219 -2.316406 L 9.074219 -5.855469 C 9.050781 -6.441406 9.027344 -6.929688 9.003906 -7.320312 C 8.953125 -7.90625 8.878906 -8.367188 8.78125 -8.710938 C 8.660156 -9.027344 8.539062 -9.269531 8.394531 -9.441406 C 8.246094 -9.589844 8.074219 -9.660156 7.929688 -9.710938 C 7.757812 -9.734375 7.613281 -9.757812 7.488281 -9.757812 C 6.710938 -9.757812 6 -9.660156 5.367188 -9.492188 C 4.707031 -9.296875 4.148438 -9.125 3.707031 -8.953125 L 3.78125 -5.441406 C 3.78125 -4.269531 3.804688 -3.292969 3.804688 -2.511719 C 3.804688 -1.511719 3.78125 -0.902344 3.734375 -0.707031 Z M 3.734375 -0.707031 "/></g></g></g><g fill="#fd8c04" fill-opacity="1"><g transform="translate(117.843811, 70.826607)"><g><path d="M 10.980469 -7.78125 C 10.953125 -7.003906 10.785156 -6.34375 10.464844 -5.757812 C 10.125 -5.171875 9.636719 -4.683594 9.027344 -4.316406 C 8.394531 -3.929688 7.613281 -3.683594 6.710938 -3.5625 C 5.78125 -3.414062 4.707031 -3.441406 3.539062 -3.636719 C 3.757812 -3.246094 4.050781 -2.925781 4.441406 -2.683594 C 4.804688 -2.390625 5.222656 -2.195312 5.683594 -2.050781 C 6.125 -1.902344 6.585938 -1.804688 7.101562 -1.78125 C 7.585938 -1.730469 8.050781 -1.78125 8.539062 -1.878906 C 8.636719 -1.878906 8.78125 -1.902344 8.929688 -1.925781 C 9.050781 -1.925781 9.171875 -1.902344 9.320312 -1.878906 C 9.417969 -1.828125 9.539062 -1.757812 9.636719 -1.660156 C 9.734375 -1.535156 9.785156 -1.390625 9.832031 -1.195312 C 9.882812 -0.902344 9.832031 -0.683594 9.710938 -0.535156 C 9.5625 -0.339844 9.367188 -0.21875 9.148438 -0.121094 C 8.90625 -0.0234375 8.660156 0.0234375 8.417969 0.0742188 C 8.148438 0.0976562 7.90625 0.121094 7.710938 0.121094 C 6.734375 0.121094 5.855469 0 5.074219 -0.242188 C 4.246094 -0.488281 3.5625 -0.828125 2.976562 -1.316406 C 2.367188 -1.78125 1.902344 -2.367188 1.5625 -3.050781 C 1.195312 -3.734375 1 -4.511719 0.953125 -5.417969 C 0.902344 -6.292969 0.976562 -7.125 1.195312 -7.90625 C 1.390625 -8.660156 1.757812 -9.34375 2.246094 -9.929688 C 2.707031 -10.515625 3.316406 -10.980469 4.050781 -11.320312 C 4.78125 -11.660156 5.636719 -11.832031 6.613281 -11.832031 C 7.929688 -11.832031 9.003906 -11.492188 9.832031 -10.808594 C 10.613281 -10.125 11.003906 -9.101562 10.980469 -7.78125 Z M 6.683594 -10.050781 C 6.292969 -10.050781 5.878906 -9.976562 5.441406 -9.882812 C 4.976562 -9.757812 4.5625 -9.539062 4.222656 -9.199219 C 3.855469 -8.855469 3.5625 -8.367188 3.367188 -7.757812 C 3.121094 -7.125 3.050781 -6.292969 3.148438 -5.269531 C 3.832031 -5.222656 4.539062 -5.195312 5.269531 -5.246094 C 5.953125 -5.246094 6.585938 -5.367188 7.171875 -5.585938 C 7.710938 -5.78125 8.171875 -6.074219 8.515625 -6.515625 C 8.855469 -6.929688 9.003906 -7.515625 8.976562 -8.296875 C 8.976562 -8.464844 8.929688 -8.660156 8.855469 -8.878906 C 8.757812 -9.074219 8.636719 -9.246094 8.464844 -9.441406 C 8.269531 -9.613281 8.050781 -9.757812 7.78125 -9.882812 C 7.488281 -9.976562 7.125 -10.050781 6.683594 -10.050781 Z M 6.683594 -10.050781 "/></g></g></g><g fill="#fd8c04" fill-opacity="1"><g transform="translate(128.504292, 70.826607)"><g><path d="M 3.734375 -0.707031 C 3.636719 -0.414062 3.511719 -0.195312 3.34375 -0.046875 C 3.148438 0.0976562 2.902344 0.171875 2.609375 0.121094 C 2.367188 0.0742188 2.195312 -0.0234375 2.050781 -0.269531 C 1.902344 -0.464844 1.828125 -0.757812 1.855469 -1.097656 L 1.535156 -10.589844 C 1.464844 -10.785156 1.464844 -10.980469 1.511719 -11.175781 C 1.535156 -11.367188 1.609375 -11.539062 1.757812 -11.6875 C 1.855469 -11.808594 2.023438 -11.90625 2.21875 -11.953125 C 2.390625 -11.980469 2.585938 -11.929688 2.832031 -11.832031 C 3.023438 -11.710938 3.171875 -11.539062 3.316406 -11.320312 C 3.414062 -11.078125 3.488281 -10.808594 3.511719 -10.492188 L 3.511719 -10.125 C 3.511719 -9.976562 3.511719 -9.855469 3.539062 -9.734375 C 3.929688 -10.367188 4.390625 -10.855469 4.929688 -11.199219 C 5.464844 -11.492188 6.027344 -11.660156 6.660156 -11.660156 C 6.90625 -11.660156 7.222656 -11.613281 7.5625 -11.5625 C 7.878906 -11.492188 8.199219 -11.34375 8.539062 -11.148438 C 8.832031 -10.90625 9.125 -10.589844 9.394531 -10.199219 C 9.636719 -9.757812 9.832031 -9.199219 9.953125 -8.515625 C 10.003906 -8.171875 9.953125 -7.878906 9.808594 -7.683594 C 9.636719 -7.464844 9.394531 -7.34375 9.101562 -7.320312 C 8.808594 -7.269531 8.585938 -7.367188 8.441406 -7.5625 C 8.269531 -7.734375 8.148438 -7.953125 8.101562 -8.199219 C 7.929688 -8.832031 7.710938 -9.222656 7.417969 -9.417969 C 7.101562 -9.589844 6.78125 -9.6875 6.488281 -9.6875 C 6.292969 -9.6875 6.074219 -9.660156 5.855469 -9.613281 C 5.613281 -9.539062 5.367188 -9.417969 5.125 -9.269531 C 4.855469 -9.101562 4.609375 -8.878906 4.367188 -8.585938 C 4.097656 -8.296875 3.855469 -7.90625 3.636719 -7.464844 C 3.636719 -6.976562 3.660156 -6.5625 3.707031 -6.195312 C 3.707031 -5.804688 3.734375 -5.417969 3.757812 -5.050781 C 3.757812 -4.660156 3.78125 -4.269531 3.804688 -3.878906 L 3.804688 -2.511719 C 3.804688 -1.511719 3.78125 -0.902344 3.734375 -0.707031 Z M 3.734375 -0.707031 "/></g></g></g><path fill="#fd8c04" d="M 124.21875 40.96875 L 118.839844 39.875 L 117.652344 40.640625 L 121.550781 43.664062 C 122.441406 42.765625 123.328125 41.867188 124.21875 40.96875 Z M 124.21875 40.96875 " fill-opacity="1" fill-rule="nonzero"/><g clip-path="url(#de72f5e38f)"><path fill="#fd8c04" d="M 125.609375 47.144531 L 128.910156 51.464844 L 129.664062 50.265625 L 128.527344 44.574219 C 127.53125 45.40625 126.570312 46.277344 125.609375 47.144531 Z M 125.609375 47.144531 " fill-opacity="1" fill-rule="nonzero"/></g><g clip-path="url(#c6b9d98743)"><path fill="#fd8c04" d="M 131.457031 38.363281 C 130.789062 38.035156 128.226562 38.335938 127.386719 38.980469 C 126.136719 39.933594 118.511719 47.835938 118.511719 47.835938 L 115.636719 48.378906 L 114.746094 49.613281 C 114.746094 49.613281 116.214844 49.882812 117.699219 50.175781 C 118.390625 50.308594 119.566406 49.949219 119.566406 49.949219 C 123.023438 49.152344 134.113281 39.664062 131.457031 38.363281 Z M 130.992188 39.464844 C 130.941406 39.714844 130.777344 39.933594 130.59375 40.105469 C 130.496094 40.195312 130.390625 40.273438 130.28125 40.347656 C 130.226562 40.386719 130.015625 40.46875 129.992188 40.519531 C 130.820312 38.753906 129.238281 38.578125 129.238281 38.578125 C 129.613281 38.496094 130.070312 38.382812 130.453125 38.5 C 130.855469 38.621094 131.074219 39.054688 130.992188 39.464844 Z M 130.992188 39.464844 " fill-opacity="1" fill-rule="nonzero"/></g></svg>