<svg xmlns="http://www.w3.org/2000/svg" xmlns:xlink="http://www.w3.org/1999/xlink" width="60" zoomAndPan="magnify" viewBox="0 0 45 44.999999" height="60" preserveAspectRatio="xMidYMid meet" version="1.0"><defs><clipPath id="56f29050fa"><path d="M 22 8 L 25 8 L 25 38.464844 L 22 38.464844 Z M 22 8 " clip-rule="nonzero"/></clipPath><clipPath id="b7476e8373"><path d="M 16 6.214844 L 29.421875 6.214844 L 29.421875 20 L 16 20 Z M 16 6.214844 " clip-rule="nonzero"/></clipPath></defs><g clip-path="url(#56f29050fa)"><path fill="#ffffff" d="M 23.800781 38.449219 C 23.164062 38.449219 22.636719 37.964844 22.613281 37.34375 C 22.410156 32.15625 22.015625 9.636719 22.011719 9.414062 C 22 8.785156 22.523438 8.261719 23.183594 8.25 C 23.84375 8.238281 24.378906 8.742188 24.390625 9.378906 C 24.394531 9.609375 24.789062 32.101562 24.992188 37.261719 C 25.015625 37.894531 24.503906 38.425781 23.847656 38.449219 C 23.832031 38.449219 23.8125 38.449219 23.800781 38.449219 Z M 23.800781 38.449219 " fill-opacity="1" fill-rule="nonzero"/></g><g clip-path="url(#b7476e8373)"><path fill="#ffffff" d="M 17.242188 19.199219 C 16.921875 19.199219 16.59375 19.074219 16.363281 18.820312 C 15.921875 18.351562 15.957031 17.628906 16.445312 17.199219 C 20.386719 13.75 21.875 7.21875 21.890625 7.148438 C 22.003906 6.640625 22.464844 6.265625 23.011719 6.242188 C 23.550781 6.226562 24.039062 6.558594 24.199219 7.058594 C 24.21875 7.113281 26.007812 12.804688 29.035156 16.824219 C 29.421875 17.335938 29.300781 18.054688 28.773438 18.425781 C 28.242188 18.800781 27.5 18.683594 27.113281 18.171875 C 25.371094 15.863281 24.039062 13.121094 23.160156 11.019531 C 22.21875 13.449219 20.601562 16.664062 18.054688 18.890625 C 17.8125 19.101562 17.527344 19.199219 17.242188 19.199219 Z M 17.242188 19.199219 " fill-opacity="1" fill-rule="nonzero"/></g></svg>