<svg xmlns="http://www.w3.org/2000/svg" xmlns:xlink="http://www.w3.org/1999/xlink" width="54" zoomAndPan="magnify" viewBox="0 0 40.5 30.75" height="41" preserveAspectRatio="xMidYMid meet" version="1.0"><defs><clipPath id="5ea72e263f"><path d="M 3 0.835938 L 29 0.835938 L 29 17 L 3 17 Z M 3 0.835938 " clip-rule="nonzero"/></clipPath><clipPath id="f22febe594"><path d="M 4 13 L 33 13 L 33 30.085938 L 4 30.085938 Z M 4 13 " clip-rule="nonzero"/></clipPath><clipPath id="64f8bd7cb8"><path d="M 1.003906 9 L 27 9 L 27 20 L 1.003906 20 Z M 1.003906 9 " clip-rule="nonzero"/></clipPath></defs><g clip-path="url(#5ea72e263f)"><path fill="#09847f" d="M 6.039062 16.378906 C 6.015625 16.074219 6.003906 15.769531 6.003906 15.460938 C 6.003906 14.214844 6.1875 13.011719 6.53125 11.875 C 7 13.203125 8.644531 14.171875 9.789062 14.84375 C 10.121094 15.042969 10.46875 15.226562 10.789062 15.441406 C 11.402344 15.28125 12.007812 15.101562 12.605469 14.910156 C 12.488281 14.585938 12.433594 14.160156 12.5 13.9375 C 12.667969 13.382812 13.183594 13.527344 13.664062 13.484375 C 15.242188 13.347656 14.757812 10.789062 15.460938 9.839844 C 15.972656 9.140625 17.011719 8.71875 17.015625 7.851562 C 17.019531 7.132812 16.253906 6.59375 16.242188 5.875 C 16.242188 5.800781 16.246094 5.730469 16.257812 5.660156 C 16.300781 5.382812 16.410156 5.113281 16.390625 4.835938 C 16.347656 4.277344 15.835938 3.886719 15.410156 3.476562 C 16.316406 3.261719 17.257812 3.148438 18.226562 3.148438 C 19.484375 3.148438 20.695312 3.339844 21.839844 3.695312 C 21.515625 4.585938 22.222656 6.105469 23.003906 6.605469 C 23.59375 6.980469 24.417969 7.128906 24.683594 7.777344 C 24.726562 7.894531 24.75 8.007812 24.753906 8.125 C 25.828125 7.1875 26.835938 6.179688 27.777344 5.101562 C 27.914062 4.945312 28.011719 4.835938 28.097656 4.757812 C 25.507812 2.332031 22.039062 0.847656 18.226562 0.847656 C 10.214844 0.847656 3.722656 7.390625 3.722656 15.460938 C 3.722656 15.851562 3.738281 16.238281 3.765625 16.617188 C 4.53125 16.558594 5.289062 16.476562 6.039062 16.378906 Z M 6.039062 16.378906 " fill-opacity="1" fill-rule="nonzero"/></g><g clip-path="url(#f22febe594)"><path fill="#09847f" d="M 30.882812 14.496094 C 30.777344 14.554688 30.703125 14.601562 30.667969 14.621094 C 28.289062 16.085938 25.734375 17.300781 23.070312 18.242188 C 23.054688 18.363281 23.054688 18.480469 23.074219 18.601562 C 23.195312 19.28125 23.859375 19.859375 24.542969 19.882812 C 24.855469 19.890625 25.214844 19.816406 25.457031 20.019531 C 25.605469 20.144531 25.667969 20.335938 25.71875 20.523438 C 26.050781 21.738281 26.140625 23.019531 25.984375 24.265625 C 25.953125 24.519531 25.910156 24.773438 25.925781 25.027344 C 23.824219 26.746094 21.144531 27.777344 18.226562 27.777344 C 17.644531 27.777344 17.066406 27.738281 16.507812 27.65625 C 16.511719 27.550781 16.519531 27.449219 16.535156 27.347656 C 16.613281 26.835938 16.882812 26.355469 17.277344 26.019531 C 17.539062 25.796875 17.882812 25.582031 17.890625 25.238281 C 17.898438 24.867188 17.519531 24.636719 17.265625 24.371094 C 16.765625 23.851562 16.707031 23.03125 17.136719 22.484375 C 17.699219 21.769531 18.234375 21.023438 18.765625 20.277344 C 18.945312 20.027344 19.136719 19.738281 19.09375 19.429688 C 19.09375 19.425781 19.09375 19.425781 19.09375 19.421875 C 16.808594 19.976562 14.464844 20.339844 12.09375 20.503906 C 11.527344 20.539062 10.964844 20.566406 10.40625 20.582031 C 10.351562 21.101562 10.394531 21.632812 10.542969 22.105469 C 10.863281 23.113281 11.730469 23.890625 12.71875 24.257812 C 12.980469 24.355469 13.253906 24.425781 13.472656 24.597656 C 13.691406 24.769531 13.84375 25.074219 13.738281 25.328125 C 13.675781 25.484375 13.527344 25.609375 13.527344 25.777344 C 13.527344 25.890625 13.59375 25.992188 13.660156 26.085938 C 13.78125 26.257812 14.011719 26.664062 14.285156 27.125 C 11.082031 26.023438 8.476562 23.621094 7.09375 20.539062 C 6.710938 20.519531 6.332031 20.496094 5.953125 20.460938 L 5.898438 20.457031 C 5.515625 20.425781 5.042969 20.382812 4.539062 20.308594 C 6.523438 26 11.902344 30.078125 18.226562 30.078125 C 26.238281 30.078125 32.730469 23.535156 32.730469 15.460938 C 32.730469 14.773438 32.679688 14.09375 32.589844 13.433594 C 32.257812 13.683594 31.722656 14.003906 30.882812 14.496094 Z M 30.882812 14.496094 " fill-opacity="1" fill-rule="nonzero"/></g><g clip-path="url(#64f8bd7cb8)"><path fill="#09847f" d="M 23.328125 9.972656 C 23.171875 9.910156 17.378906 15.621094 5.832031 16.996094 C 5.152344 17.074219 3.078125 17.304688 2.515625 17.203125 C 1.878906 17.085938 1.347656 16.695312 1.976562 15.554688 C 1.550781 16.074219 1.03125 16.496094 1.027344 17.246094 C 1.003906 19.480469 4.414062 19.75 6.003906 19.886719 C 8.015625 20.0625 10.855469 19.871094 12.84375 19.527344 C 17.6875 18.679688 20.191406 17.144531 26.007812 14.203125 C 26.007812 14.203125 26.007812 12.488281 26.007812 11.195312 C 26.003906 11.191406 24.910156 10.621094 23.328125 9.972656 Z M 23.328125 9.972656 " fill-opacity="1" fill-rule="nonzero"/></g><path fill="#09847f" d="M 38.84375 3.230469 C 38.4375 2.578125 36.753906 2.902344 36.105469 3.3125 L 35.40625 3.753906 L 28.46875 2.070312 C 28.269531 2.011719 28.039062 2.050781 27.84375 2.171875 C 27.4375 2.425781 27.351562 2.945312 27.664062 3.21875 L 31.300781 6.109375 L 27.535156 9.414062 L 25.757812 8.660156 C 25.546875 8.574219 25.308594 8.59375 25.117188 8.714844 L 24.492188 9.109375 C 24.34375 9.203125 24.351562 9.417969 24.503906 9.5 L 26.824219 10.78125 L 26.933594 13.402344 C 26.941406 13.574219 27.132812 13.675781 27.277344 13.582031 L 27.902344 13.1875 C 28.09375 13.066406 28.214844 12.859375 28.226562 12.632812 L 28.320312 10.84375 L 32.734375 8.746094 L 33.878906 14.054688 C 33.984375 14.457031 34.484375 14.601562 34.890625 14.347656 C 35.085938 14.226562 35.21875 14.03125 35.253906 13.824219 L 36.882812 6.125 L 37.582031 5.679688 C 38.226562 5.273438 39.25 3.882812 38.84375 3.230469 Z M 37.488281 5.160156 C 37.625 4.015625 36.496094 3.5625 36.496094 3.5625 C 36.496094 3.5625 37.648438 3.015625 38.0625 3.6875 C 38.503906 4.394531 37.488281 5.160156 37.488281 5.160156 Z M 37.488281 5.160156 " fill-opacity="1" fill-rule="nonzero"/></svg>